<?xml version="1.0" encoding="UTF-8"?>
<svg width="24px" height="20px" viewBox="0 0 24 20" version="1.1" xmlns="http://www.w3.org/2000/svg" xmlns:xlink="http://www.w3.org/1999/xlink">
    <!-- Generator: Sketch 46 (44423) - http://www.bohemiancoding.com/sketch -->
    <title>Combined Shape</title>
    <desc>Created with Sketch.</desc>
    <defs></defs>
    <g id="Home" stroke="none" stroke-width="1" fill="none" fill-rule="evenodd">
        <g id="Desktop-HD" transform="translate(-18.000000, -10.000000)" stroke="#004071">
            <g id="topbar">
                <path d="M30.7064649,16.5226765 L19.8985598,16.5226765 C19.4114779,16.5226765 19.2606388,15.8625385 19.6992615,15.6504614 L29.2583869,11.1309619 C29.7540032,10.8966377 30.3283256,10.8966377 30.8239419,11.1309619 L40.3830673,15.6504614 C40.8216891,15.8625385 40.6708509,16.5226765 40.1837686,16.5226765 L38.7083333,16.5226765 L30.7064649,16.5226765 Z M22.5,26.3647343 L20.5,26.3647343 L20.5,16.7270531 L22.5,16.7270531 L22.5,26.3647343 Z M37.5,16.7270531 L39.5,16.7270531 L39.5,26.3647343 L37.5,26.3647343 L37.5,16.7270531 Z M40.2390811,29.3478261 L19.8432477,29.3478261 C19.3526625,29.3478261 19.0199456,28.8480939 19.2086321,28.3946487 L19.7815488,27.0178371 C19.8882966,26.7613043 20.1386199,26.5942029 20.4161644,26.5942029 L39.6661644,26.5942029 C39.9437094,26.5942029 40.1940317,26.7613043 40.3007787,27.0178371 L40.8736954,28.3946487 C41.062383,28.8480939 40.7296654,29.3478261 40.2390811,29.3478261 Z M24.0416667,26.3898254 L24.0416667,19.7352352 C24.0416667,18.9748438 24.6572741,18.3584253 25.4166649,18.3584253 L25.4166684,18.3584253 C26.1760593,18.3584253 26.7916667,18.9748438 26.7916667,19.7352352 L26.7916667,26.3898254 L24.0416667,26.3898254 Z M33.2083333,26.3898254 L33.2083333,19.7352352 C33.2083333,18.9748438 33.8239407,18.3584253 34.5833316,18.3584253 L34.5833351,18.3584253 C35.3427259,18.3584253 35.9583333,18.9748438 35.9583333,19.7352352 L35.9583333,26.3898254 L33.2083333,26.3898254 Z M28.625,26.3898254 L28.625,19.7352352 C28.625,18.9748438 29.2406074,18.3584253 29.9999983,18.3584253 L30.0000018,18.3584253 C30.7593926,18.3584253 31.375,18.9748438 31.375,19.7352352 L31.375,26.3898254 L28.625,26.3898254 Z" id="Combined-Shape"></path>
            </g>
        </g>
    </g>
</svg>