<?xml version="1.0" ?><svg height="48px" version="1.1" viewBox="0 0 48 48" width="48px" xmlns="http://www.w3.org/2000/svg" xmlns:sketch="http://www.bohemiancoding.com/sketch/ns" xmlns:xlink="http://www.w3.org/1999/xlink"><title/><defs/><g fill="none" fill-rule="evenodd" id="shadow" stroke="none" stroke-width="1"><g id="youtube"><path d="M24,48 C37.2548347,48 48,37.2548347 48,24 C48,10.7451653 37.2548347,0 24,0 C10.7451653,0 0,10.7451653 0,24 C0,37.2548347 10.7451653,48 24,48 Z" fill="#CA4638"/><path d="M26.5319704,47.8680296 C25.6999014,47.9552726 24.855174,48 24,48 C10.7451653,48 0,37.2548347 0,24 L14.8007812,9.19921875 L16.5107422,12.6583984 L19.3537109,9.19921875 L18.4009766,17.6890625 L22.2232422,12.9792969 L24.9566406,13.7542969 L25.1892578,16.2675781 L27.5859375,12.8298828 L28.3232422,16.2675781 L30.6665039,12.8298828 L32.3115234,21.0537109 L28.3232422,25.2183594 L35.2150391,25.9357422 L37.4931641,36.9068359 L26.5319704,47.8680296 Z" fill="#000000" fill-opacity="0.400000006"/><path d="M33.3732553,23.0769231 L14.6264092,23.0769231 C11.6460915,23.0769231 9.23076923,25.2760469 9.23076923,28.2379255 L9.23076923,33.4054584 C9.23076923,36.3670104 11.6460915,38.7692308 14.6264092,38.7692308 L33.3732553,38.7692308 C36.352902,38.7692308 38.7692308,36.3673369 38.7692308,33.4054584 L38.7692308,28.2787407 C38.7692308,25.3168621 36.352902,23.0769231 33.3732553,23.0769231 Z M18.3027043,27.2799096 L16.4950904,27.2799096 L16.4950904,35.6335512 L14.7476955,35.6335512 L14.7476955,27.2799096 L12.9404297,27.2799096 L12.9404297,25.8583233 L18.3027043,25.8583233 L18.3027043,27.2799096 Z M22.9329527,35.9903738 L21.3829229,35.9903738 L21.3829229,35.2000403 C21.0950552,35.4925334 20.7988335,35.7153099 20.4879921,35.8661514 C20.1785431,36.0230139 19.8788405,36.0971671 19.587492,36.0971671 C19.2275704,36.0971671 18.960588,35.9903738 18.7767983,35.7742522 C18.5971856,35.5584474 18.5045945,35.2393352 18.5045945,34.8077256 L18.5045945,28.7781842 L20.0546243,28.7781842 L20.0546243,34.3111528 C20.0546243,34.4816417 20.0883887,34.6049134 20.1506962,34.6800173 C20.2178769,34.7589239 20.3240433,34.7947329 20.4695436,34.7947329 C20.5812794,34.7947329 20.7271277,34.7449806 20.901171,34.6438914 C21.0773028,34.5418516 21.2363784,34.4128757 21.3822267,34.2563301 L21.3822267,28.7781842 L22.9322565,28.7781842 L22.9322565,35.9903738 L22.9329527,35.9903738 Z M29.4279011,34.3032304 C29.4279011,34.812479 29.306767,35.203843 29.0634544,35.4773225 C28.8218823,35.7501682 28.4689225,36.0829069 28.0101443,36.0829069 C27.7048723,36.0829069 26.9996488,36.0318869 26.763646,35.9260444 C26.526599,35.8217862 26.3031274,35.6604872 26.1008891,35.4377108 L26.1008891,35.9900569 L24.533455,35.9900569 L24.533455,26.0167703 L26.1008891,26.0167703 L26.1008891,29.3631705 C26.3107853,29.1451474 26.5325165,28.9768768 26.7646903,28.8631118 C27.0017373,28.7471286 27.6745888,28.6913553 27.9154647,28.6913553 C28.4066149,28.6913553 28.7811562,28.6450888 29.0394364,28.9527928 C29.2991091,29.2604968 29.427553,29.7108032 29.427553,30.3011766 L29.427553,34.3032304 L29.4279011,34.3032304 Z M35.0658603,32.4389432 L32.1005103,32.4389432 L32.1005103,33.7977845 C32.1005103,34.1771066 32.1499386,34.4404455 32.2515799,34.5878012 C32.3553097,34.7354738 32.5300492,34.8070918 32.7771907,34.8070918 C33.0347748,34.8070918 33.2140394,34.7446637 33.316725,34.6201244 C33.417322,34.4946344 33.4709274,34.2221055 33.4709274,33.7974676 L33.4709274,33.4691655 L35.0662084,33.4691655 L35.0662084,33.8392976 C35.0662084,34.5782944 34.8733684,35.1353939 34.4814229,35.5112302 C34.0950467,35.8826299 33.5147863,36.0683297 32.7416859,36.0683297 C32.046905,36.0683297 31.4993647,35.8712217 31.1011536,35.4741536 C30.7043348,35.0808882 30.5020965,34.5342461 30.5020965,33.8392976 L30.5020965,30.5996907 C30.5020965,29.9763603 30.7220872,29.4636259 31.1617206,29.0703605 C31.6006579,28.6770951 32.1631659,28.4809377 32.858643,28.4809377 C33.5687397,28.4809377 34.1141915,28.6631517 34.4953463,29.0275798 C34.8761531,29.3929585 35.0665565,29.9164673 35.0665565,30.6000076 L35.0665565,32.4389432 L35.0658603,32.4389432 Z M32.7918103,29.7421757 C32.5439727,29.7421757 32.3688851,29.8071389 32.2606301,29.9418189 C32.151679,30.0679427 32.1005103,30.2853319 32.1005103,30.5879656 L32.1005103,31.3168217 L33.4709274,31.3168217 L33.4709274,30.5879656 C33.4709274,30.2853319 33.4155816,30.0679427 33.3073266,29.9418189 C33.2022045,29.8071389 33.027465,29.7421757 32.7918103,29.7421757 Z M26.7497226,29.8366101 C26.6393791,29.8366101 26.5286876,29.8584757 26.4207807,29.9063267 C26.3128739,29.9525933 26.2067074,30.0283309 26.1012372,30.1268849 L26.1012372,34.6198075 C26.2258522,34.7357907 26.3494229,34.8251547 26.4688167,34.8764916 C26.5885585,34.9262439 26.711433,34.9541306 26.8426617,34.9541306 C27.0334132,34.9541306 27.60706,34.9031107 27.6965182,34.7998032 C27.7845841,34.6977634 27.8305316,34.5342461 27.8305316,34.3035473 L27.8305316,30.5781419 C27.8305316,30.3334998 27.7776224,30.1497013 27.667627,30.0235775 C27.554847,29.8993551 26.9582265,29.8366101 26.7497226,29.8366101 Z M28.696609,21.2854525 C29.0123221,21.2854525 29.3374293,21.1945914 29.6722663,21.0195013 C30.0097874,20.84209 30.3328816,20.5824395 30.640207,20.2435341 L30.640207,21.1637516 L32.3237862,21.1637516 L32.3237862,12.8509546 L30.640207,12.8509546 L30.640207,19.161491 C30.4845312,19.3422184 30.3107381,19.4904481 30.1228536,19.6085012 C29.9329561,19.7252279 29.7759383,19.782928 29.6524714,19.782928 C29.4947826,19.782928 29.3793678,19.7391555 29.3109242,19.6496208 C29.2404675,19.5620758 29.2018841,19.4201468 29.2018841,19.2248285 L29.2018841,12.8509546 L27.5219954,12.8509546 L27.5219954,19.7988453 C27.5219954,20.2942705 27.6213058,20.6646787 27.8165715,20.9100701 C28.0145212,21.1591091 28.3054067,21.2854525 28.696609,21.2854525 Z M23.7451817,21.3743239 C24.5094689,21.3743239 25.1093573,21.1713787 25.5471952,20.7671462 C25.9813426,20.3602608 26.1990873,19.8054775 26.1990873,19.0938426 L26.1990873,14.7984995 C26.1990873,14.1661194 25.97631,13.6448287 25.5344459,13.2432491 C25.0878848,12.8426643 24.5178566,12.6410455 23.821342,12.6410455 C23.0570547,12.6410455 22.4471011,12.8317212 21.9948363,13.2130726 C21.5425715,13.594424 21.3164391,14.1054348 21.3164391,14.7517425 L21.3164391,19.0610132 C21.3164391,19.7680055 21.5372034,20.3274315 21.9780609,20.7465864 C22.4195895,21.1640832 23.0087416,21.3743239 23.7451817,21.3743239 Z M23.047325,14.6880734 C23.047325,14.5070144 23.1117425,14.3614377 23.2385645,14.2473639 C23.3684062,14.1356113 23.5344826,14.0808957 23.739478,14.0808957 C23.9625909,14.0808957 24.1424232,14.1356113 24.2796459,14.2473639 C24.4161977,14.3614377 24.4846413,14.5070144 24.4846413,14.6880734 L24.4846413,19.2172015 C24.4846413,19.4393801 24.4172042,19.615465 24.28233,19.7431348 C24.1477913,19.8708046 23.967288,19.9334789 23.7391425,19.9334789 C23.5170362,19.9334789 23.3452561,19.8727943 23.2261508,19.7454561 C23.1070454,19.6204391 23.0469895,19.4456807 23.0469895,19.2172015 L23.0469895,14.6880734 L23.047325,14.6880734 Z M17.0809859,21.1640832 L18.9749286,21.1640832 L18.9749286,15.825827 L21.1792163,9.23076923 L19.2544068,9.23076923 L18.0821418,13.7360214 L17.9630365,13.7360214 L16.7330641,9.23076923 L14.8250299,9.23076923 L17.0806504,16.0357361 L17.0806504,21.1640832 L17.0809859,21.1640832 Z" fill="#FFFFFF"/></g></g></svg>