<?xml version="1.0" encoding="UTF-8"?>
<svg width="40px" height="48px" viewBox="0 0 40 48" version="1.1" xmlns="http://www.w3.org/2000/svg" xmlns:xlink="http://www.w3.org/1999/xlink">
    <!-- Generator: Sketch 50 (54983) - http://www.bohemiancoding.com/sketch -->
    <title>iconfinder_content-form-contract-article-paper_3209382</title>
    <desc>Created with Sketch.</desc>
    <defs></defs>
    <g id="Page-1" stroke="none" stroke-width="1" fill="none" fill-rule="evenodd">
        <g id="iconfinder_content-form-contract-article-paper_3209382" fill="#004071" fill-rule="nonzero">
            <path d="M0,6 L0,48 L34,48 L34,42 L40,42 L40,0 L6,0 L6,6 L0,6 Z M32,46 L2,46 L2,8 L6,8 L25,8 L25,15 L32,15 L32,42 L32,46 Z M27,9.414 L30.586,13 L27,13 L27,9.414 Z M8,2 L38,2 L38,40 L34,40 L34,13.586 L26.414,6 L8,6 L8,2 Z" id="Shape"></path>
            <rect id="Rectangle-path" x="6" y="19" width="22" height="2"></rect>
            <rect id="Rectangle-path" x="6" y="25" width="22" height="2"></rect>
            <rect id="Rectangle-path" x="6" y="31" width="22" height="2"></rect>
            <rect id="Rectangle-path" x="6" y="39" width="9" height="2"></rect>
            <rect id="Rectangle-path" x="19" y="39" width="9" height="2"></rect>
            <rect id="Rectangle-path" x="13" y="13" width="8" height="2"></rect>
        </g>
    </g>
</svg>