<?xml version="1.0" ?><svg height="48px" version="1.1" viewBox="0 0 48 48" width="48px" xmlns="http://www.w3.org/2000/svg" xmlns:sketch="http://www.bohemiancoding.com/sketch/ns" xmlns:xlink="http://www.w3.org/1999/xlink"><title/><defs/><g fill="none" fill-rule="evenodd" id="shadow" stroke="none" stroke-width="1"><g id="rss"><path d="M24,48 C37.2548347,48 48,37.2548347 48,24 C48,10.7451653 37.2548347,0 24,0 C10.7451653,0 0,10.7451653 0,24 C0,37.2548347 10.7451653,48 24,48 Z" fill="#E08D2D"/><path d="M0.684695995,29.715304 C2.80116953,38.3791348 9.62086516,45.1988305 18.284696,47.315304 L34.2203125,31.3796875 L31.6589844,23.4058594 L25.4671875,16.8128906 L16.5902344,13.8097656 L0.684695995,29.715304 Z" fill="#000000" fill-opacity="0.400000006"/><path d="M17.9487179,19.3846154 C17.4953846,19.3846154 17.0527179,19.4219487 16.6153846,19.4766154 L16.6153846,22.1712821 C17.0500513,22.0979487 17.4927179,22.0512821 17.9487179,22.0512821 C22.3673846,22.0512821 25.9487179,25.6339487 25.9487179,30.0512821 C25.9487179,30.5072821 25.9020513,30.9499487 25.8287179,31.3846154 L28.5233846,31.3846154 C28.5780513,30.9472821 28.6153846,30.5046154 28.6153846,30.0512821 C28.6153846,24.1606154 23.8393846,19.3846154 17.9487179,19.3846154 L17.9487179,19.3846154 Z M17.964497,13.8461538 C17.508497,13.8461538 17.0605917,13.8771834 16.6153846,13.9136095 L16.6153846,16.6118343 C17.0592426,16.5673136 17.508497,16.5443787 17.964497,16.5443787 C25.415645,16.5443787 31.4556213,22.5857041 31.4556213,30.035503 C31.4556213,30.491503 31.4313373,30.9407574 31.3868166,31.3846154 L34.0850414,31.3846154 C34.1228166,30.9394083 34.1538462,30.491503 34.1538462,30.035503 C34.1538462,21.0949349 26.9050651,13.8461538 17.964497,13.8461538 L17.964497,13.8461538 Z M18,25.8461538 C15.7070769,25.8461538 13.8461538,27.7056923 13.8461538,30 C13.8461538,32.2943077 15.7070769,34.1538462 18,34.1538462 C20.2929231,34.1538462 22.1538462,32.2943077 22.1538462,30 C22.1538462,27.7056923 20.2929231,25.8461538 18,25.8461538 L18,25.8461538 Z" fill="#FFFFFF"/></g></g></svg>