<?xml version="1.0" encoding="UTF-8"?>
<svg width="289px" height="330px" viewBox="0 0 289 330" version="1.1" xmlns="http://www.w3.org/2000/svg" xmlns:xlink="http://www.w3.org/1999/xlink">
    <!-- Generator: Sketch 50 (54983) - http://www.bohemiancoding.com/sketch -->
    <title>iconfinder_contact_2318454</title>
    <desc>Created with Sketch.</desc>
    <defs></defs>
    <g id="Page-1" stroke="none" stroke-width="1" fill="none" fill-rule="evenodd">
        <g id="iconfinder_contact_2318454" fill="#004071" fill-rule="nonzero">
            <polygon id="Shape" points="288.2 329.2 14.5 329.2 14.5 260.8 41.8 260.8 41.8 301.8 260.8 301.8 260.8 28.1 41.8 28.1 41.8 82.8 14.5 82.8 14.5 0.7 288.2 0.7"></polygon>
            <rect id="Rectangle-path" x="0.8" y="137.6" width="41.1" height="27.4"></rect>
            <rect id="Rectangle-path" x="0.8" y="206" width="41.1" height="27.4"></rect>
            <rect id="Rectangle-path" x="0.8" y="69.1" width="41.1" height="27.4"></rect>
            <rect id="Rectangle-path" x="14.5" y="178.6" width="27.4" height="41.1"></rect>
            <rect id="Rectangle-path" x="14.5" y="110.2" width="27.4" height="41.1"></rect>
            <path d="M151.3,192.3 C121.1,192.3 96.5,167.7 96.5,137.5 C96.5,107.3 121.1,82.7 151.3,82.7 C181.5,82.7 206.1,107.3 206.1,137.5 C206.1,167.7 181.5,192.3 151.3,192.3 Z M151.3,110.2 C136.2,110.2 123.9,122.5 123.9,137.6 C123.9,152.7 136.2,165 151.3,165 C166.4,165 178.7,152.7 178.7,137.6 C178.7,122.5 166.4,110.2 151.3,110.2 Z" id="Shape"></path>
            <path d="M219.8,233.4 L192.4,233.4 C192.4,210.8 174,192.3 151.3,192.3 C128.6,192.3 110.2,210.7 110.2,233.4 L82.8,233.4 C82.8,195.7 113.5,165 151.2,165 C188.9,165 219.8,195.7 219.8,233.4 Z" id="Shape"></path>
        </g>
    </g>
</svg>