<?xml version="1.0" encoding="UTF-8"?>
<svg width="122px" height="122px" viewBox="0 0 122 122" version="1.1" xmlns="http://www.w3.org/2000/svg" xmlns:xlink="http://www.w3.org/1999/xlink">
    <!-- Generator: Sketch 50 (54983) - http://www.bohemiancoding.com/sketch -->
    <title>Shape</title>
    <desc>Created with Sketch.</desc>
    <defs></defs>
    <g id="Page-1" stroke="none" stroke-width="1" fill="none" fill-rule="evenodd">
        <g id="iconfinder_Settings_984751" fill="#004071" fill-rule="nonzero">
            <path d="M116.78,70.778 L112.217,65.877 C112.222,65.834 112.221,65.792 112.216,65.728 C112.314,64.635 112.379,63.534 112.422,62.432 C112.432,62.114 112.419,61.774 112.425,61.456 C112.434,60.611 112.422,59.794 112.384,58.978 C112.368,58.621 112.349,58.289 112.326,57.934 C112.307,57.389 112.279,56.851 112.238,56.282 L116.814,51.415 C118.997,49.09 122.96,46.003 121.747,43.064 L116.737,30.907 C115.524,27.965 110.543,28.582 107.358,28.471 L100.677,28.23 C100.172,27.626 99.628,27.052 99.105,26.469 C99.085,26.447 99.061,26.413 99.036,26.382 C98.85,26.187 98.693,25.975 98.505,25.783 C98.222,25.475 97.896,25.181 97.604,24.881 C97.181,24.455 96.76,24.022 96.326,23.61 C95.614,22.925 94.863,22.279 94.123,21.638 C94.093,21.607 94.045,21.581 94.019,21.56 C93.979,21.521 93.943,21.477 93.903,21.437 L93.687,14.744 C93.589,11.575 94.212,6.585 91.29,5.369 L79.129,0.308 C76.203,-0.91 73.095,3.055 70.777,5.218 L65.88,9.79 C64.782,9.68 63.692,9.623 62.601,9.581 C62.296,9.569 61.989,9.575 61.663,9.577 C60.96,9.571 60.251,9.55 59.528,9.578 C58.615,9.607 57.702,9.664 56.792,9.743 C56.675,9.749 56.558,9.749 56.466,9.757 C56.401,9.77 56.352,9.76 56.286,9.773 L51.415,5.187 C49.094,3.016 46.003,-0.959 43.064,0.252 L30.907,5.262 C27.965,6.474 28.587,11.467 28.47,14.643 L28.233,21.334 C28.16,21.389 28.087,21.465 28.019,21.532 C27.22,22.198 26.436,22.886 25.674,23.602 C25.393,23.878 25.122,24.156 24.847,24.435 C24.306,24.962 23.763,25.506 23.244,26.065 C22.978,26.355 22.733,26.649 22.474,26.945 C22.122,27.327 21.778,27.704 21.441,28.107 L14.744,28.312 C11.575,28.411 6.585,27.788 5.369,30.711 L0.306,42.871 C-0.911,45.798 3.048,48.895 5.211,51.213 L9.784,56.111 C9.71,56.869 9.677,57.623 9.635,58.39 C9.636,58.461 9.623,58.536 9.625,58.607 C9.563,59.907 9.532,61.205 9.577,62.499 C9.598,63.067 9.64,63.625 9.676,64.192 C9.709,64.65 9.719,65.116 9.762,65.573 C9.759,65.623 9.763,65.669 9.767,65.703 L5.185,70.587 C3.013,72.904 -0.965,75.986 0.246,78.924 L5.256,91.081 C6.469,94.025 11.465,93.412 14.641,93.528 L21.328,93.755 C21.373,93.821 21.427,93.86 21.475,93.928 C22.153,94.742 22.865,95.537 23.607,96.337 C23.868,96.618 24.144,96.859 24.409,97.135 C24.954,97.688 25.503,98.235 26.071,98.768 C26.35,99.01 26.645,99.263 26.927,99.524 C27.322,99.873 27.706,100.229 28.102,100.547 L28.306,107.243 C28.406,110.412 27.786,115.414 30.71,116.631 L42.87,121.693 C45.798,122.912 48.893,118.95 51.211,116.787 L56.113,112.225 C56.167,112.226 56.219,112.219 56.273,112.22 C56.904,112.29 57.53,112.314 58.156,112.346 C58.344,112.362 58.526,112.363 58.704,112.382 C58.998,112.391 59.28,112.414 59.564,112.424 C59.9,112.431 60.235,112.421 60.571,112.422 C61.388,112.441 62.206,112.424 63.016,112.387 C63.369,112.375 63.73,112.348 64.079,112.328 C64.63,112.304 65.161,112.277 65.703,112.245 L70.582,116.815 C72.906,118.998 75.981,122.966 78.919,121.753 L91.077,116.743 C94.02,115.529 93.412,110.544 93.524,107.358 L93.754,100.682 C94.327,100.204 94.879,99.706 95.412,99.22 C95.487,99.133 95.573,99.072 95.655,99.003 C95.841,98.827 96.04,98.679 96.2,98.51 C96.524,98.223 96.803,97.906 97.098,97.62 C97.52,97.193 97.968,96.766 98.397,96.319 C99.02,95.65 99.647,94.95 100.253,94.221 C100.322,94.156 100.376,94.101 100.435,94.016 C100.486,93.971 100.517,93.941 100.546,93.906 L107.237,93.691 C110.406,93.592 115.408,94.212 116.625,91.288 L121.687,79.128 C122.91,76.203 118.942,73.096 116.78,70.778 Z M87.75,61 C87.75,75.773 75.773,87.75 61,87.75 C46.227,87.75 34.25,75.773 34.25,61 C34.25,46.227 46.227,34.25 61,34.25 C75.773,34.25 87.75,46.227 87.75,61 Z" id="Shape"></path>
        </g>
    </g>
</svg>