<?xml version="1.0" encoding="UTF-8"?>
<svg width="26px" height="32px" viewBox="0 0 26 32" version="1.1" xmlns="http://www.w3.org/2000/svg" xmlns:xlink="http://www.w3.org/1999/xlink">
    <!-- Generator: Sketch 50 (54983) - http://www.bohemiancoding.com/sketch -->
    <title>iconfinder_book_text_103408</title>
    <desc>Created with Sketch.</desc>
    <defs></defs>
    <g id="Page-1" stroke="none" stroke-width="1" fill="none" fill-rule="evenodd">
        <g id="iconfinder_book_text_103408" fill="#004071" fill-rule="nonzero">
            <g id="book_x5F_text">
                <path d="M26.002,0 L26.002,1.999 L24.002,1.999 L24.002,4 L26.002,4 L26.002,32 L2.002,32 C2.002,32 0.002,32 0.002,30 L0.002,3.018 C0.002,3.012 0.001,3.006 0.001,3 C-0.034,1.645 0.808,0.686 1.556,0.354 C2.294,-0.008 2.918,0.004 3.002,0 L26.002,0 M2.998,4 C3,4 3.002,4 3.002,4 L22.002,4 L22.002,1.999 L3.002,1.999 C3,2.005 2.97,1.997 2.853,2.018 C2.738,2.037 2.579,2.078 2.449,2.143 C2.196,2.314 2.035,2.353 2.002,3 C2.017,3.5 2.136,3.609 2.274,3.743 C2.418,3.869 2.675,3.955 2.853,3.982 C2.948,3.999 2.986,4 2.998,4 M4.002,30 L24.002,30 L24.002,6 L4.002,6 L4.002,30" id="Shape"></path>
                <polygon id="Shape" points="6 22 6 20 18 20 18 22"></polygon>
                <polygon id="Shape" points="6 14 6 12 22 12 22 14"></polygon>
                <polygon id="Shape" points="6 18 6 16 22 16 22 18"></polygon>
            </g>
        </g>
    </g>
</svg>