<?xml version="1.0" encoding="UTF-8"?>
<svg width="153px" height="109px" viewBox="0 0 153 109" version="1.1" xmlns="http://www.w3.org/2000/svg" xmlns:xlink="http://www.w3.org/1999/xlink">
    <!-- Generator: Sketch 50 (54983) - http://www.bohemiancoding.com/sketch -->
    <title>Group</title>
    <desc>Created with Sketch.</desc>
    <defs></defs>
    <g id="Page-1" stroke="none" stroke-width="1" fill="none" fill-rule="evenodd">
        <g id="Group" transform="translate(-16.000000, -3.000000)">
            <path d="M52.9515331,43.3836922 C52.9515331,43.935115 52.8494178,44.655028 52.6451872,45.5434313 C52.4409565,46.4318347 52.2265143,47.1313247 52.0018606,47.6419013 C51.5729762,48.6630545 50.3271693,49.745477 48.2644397,50.8891687 C46.3446716,51.930745 44.4453265,52.4515331 42.5664045,52.4515331 C42.0149817,52.4515331 41.4788763,52.4157928 40.9580881,52.344312 C40.4373,52.2728313 39.8501368,52.1451872 39.1965987,51.9613796 C38.5430607,51.777572 38.0580129,51.6295048 37.7414553,51.5171779 C37.4248978,51.404851 36.8581578,51.1955146 36.0412352,50.8891687 C35.2243126,50.5828227 34.7239475,50.3990151 34.5401399,50.3377459 C32.5386795,49.6229386 30.7516613,48.7753814 29.1790853,47.7950743 C26.5649329,46.1816521 23.8639826,43.9810669 21.0762342,41.1933185 C18.2884858,38.4055701 16.0879005,35.7046197 14.4744783,33.0904673 C13.4941712,31.5178913 12.646614,29.7308731 11.9318067,27.7294127 C11.8705375,27.5456052 11.6867299,27.0452401 11.380384,26.2283175 C11.074038,25.4113948 10.8647016,24.8446548 10.7523747,24.5280973 C10.6400479,24.2115398 10.4919806,23.726492 10.308173,23.0729539 C10.1243655,22.4194158 9.9967213,21.8322527 9.92524058,21.3114645 C9.85375985,20.7906763 9.81801948,20.2545709 9.81801948,19.7031481 C9.81801948,17.8242261 10.3388076,15.9248811 11.380384,14.0051129 C12.5240756,11.9423834 13.6064981,10.6965764 14.6276513,10.267692 C15.138228,10.0430383 15.8377179,9.82859611 16.7261213,9.62436546 C17.6145246,9.42013481 18.3344377,9.31801948 18.8858604,9.31801948 C19.1717833,9.31801948 19.3862255,9.34865408 19.529187,9.40992328 C19.8968021,9.53246167 20.4380134,10.3085381 21.1528207,11.7381527 C21.3774744,12.1261909 21.6838204,12.6776137 22.0718586,13.392421 C22.4598968,14.1072283 22.8173005,14.7556606 23.1440695,15.3377179 C23.4708386,15.9197753 23.7873961,16.4660923 24.093742,16.9766689 C24.1550112,17.0583612 24.3337131,17.3136495 24.6298475,17.7425339 C24.9259819,18.1714182 25.1455299,18.5339276 25.2884914,18.8300621 C25.4314528,19.1261965 25.5029335,19.4172252 25.5029335,19.7031481 C25.5029335,20.1116094 25.2119049,20.6221861 24.6298475,21.234878 C24.0477901,21.84757 23.4146751,22.4092043 22.7305024,22.9197809 C22.0463298,23.4303575 21.4132147,23.9715687 20.8311574,24.5434146 C20.2491,25.1152604 19.9580713,25.5849909 19.9580713,25.9526061 C19.9580713,26.1364137 20.009129,26.3661731 20.1112443,26.6418845 C20.2133597,26.9175959 20.3001577,27.1269323 20.3716384,27.2698938 C20.4431191,27.4128552 20.5860806,27.657932 20.8005228,28.0051241 C21.014965,28.3523162 21.1323976,28.5463353 21.1528207,28.5871815 C22.7049736,31.3851414 24.4817803,33.7848516 26.4832407,35.786312 C28.4847011,37.7877723 30.8844112,39.564579 33.6823711,41.116732 C33.7232173,41.137155 33.9172364,41.2545877 34.2644285,41.4690298 C34.6116206,41.683472 34.8566974,41.8264335 34.9996588,41.8979142 C35.1426203,41.9693949 35.3519567,42.056193 35.6276681,42.1583083 C35.9033795,42.2604236 36.133139,42.3114813 36.3169466,42.3114813 C36.6845617,42.3114813 37.1542922,42.0204526 37.726138,41.4383952 C38.2979839,40.8563379 38.8391951,40.2232229 39.3497717,39.5390502 C39.8603484,38.8548775 40.4219827,38.2217625 41.0346746,37.6397051 C41.6473666,37.0576478 42.1579432,36.7666191 42.5664045,36.7666191 C42.8523274,36.7666191 43.1433561,36.8380998 43.4394905,36.9810613 C43.735625,37.1240227 44.0981344,37.3435707 44.5270188,37.6397051 C44.9559031,37.9358396 45.2111914,38.1145414 45.2928837,38.1758106 C45.8034603,38.4821566 46.3497773,38.7987141 46.9318347,39.1254831 C47.513892,39.4522522 48.1623244,39.8096558 48.8771316,40.197694 C49.5919389,40.5857323 50.1433617,40.8920782 50.5313999,41.116732 C51.9610145,41.8315392 52.737091,42.3727505 52.8596293,42.7403656 C52.9208985,42.8833271 52.9515331,43.0977693 52.9515331,43.3836922 Z" id="Shape" fill="#159B3C" fill-rule="nonzero" transform="translate(31.384776, 30.884776) rotate(-315.000000) translate(-31.384776, -30.884776) "></path>
            <path d="M42.793457,13 L42.793457,3.69433594 L44.2915039,3.69433594 L47.4145508,9.90869141 L47.4145508,3.69433594 L48.8491211,3.69433594 L48.8491211,13 L47.300293,13 L44.2280273,6.93164062 L44.2280273,13 L42.793457,13 Z M53.4422852,13 L53.4422852,11.9907227 C53.2391591,12.3546568 52.9725602,12.6392405 52.6424805,12.8444824 C52.3124007,13.0497243 51.9675148,13.1523438 51.6078125,13.1523438 C51.2438784,13.1523438 50.9180353,13.0571299 50.6302734,12.8666992 C50.3425116,12.6762686 50.1277514,12.405438 49.9859863,12.0541992 C49.8442213,11.7029605 49.7733398,11.1930372 49.7733398,10.5244141 L49.7733398,6.25878906 L51.2396484,6.25878906 L51.2396484,9.35644531 C51.2396484,10.2408898 51.261865,10.8026518 51.3062988,11.041748 C51.3507326,11.2808443 51.4491203,11.4659824 51.6014648,11.597168 C51.7538094,11.7283535 51.9378895,11.7939453 52.1537109,11.7939453 C52.3991549,11.7939453 52.6255523,11.7082528 52.8329102,11.5368652 C53.040268,11.3654777 53.1767412,11.1454278 53.242334,10.876709 C53.3079268,10.6079902 53.3407227,10.0166061 53.3407227,9.10253906 L53.3407227,6.25878906 L54.8006836,6.25878906 L54.8006836,13 L53.4422852,13 Z M55.5598633,6.25878906 L56.9055664,6.25878906 L56.9055664,7.17919922 C57.1467785,6.8194969 57.4112616,6.55078214 57.6990234,6.37304688 C57.9867853,6.19531161 58.2978173,6.10644531 58.6321289,6.10644531 C58.9875994,6.10644531 59.2954577,6.19531161 59.5557129,6.37304688 C59.8159681,6.55078214 60.0286125,6.8194969 60.1936523,7.17919922 C60.4390963,6.8194969 60.7025214,6.55078214 60.9839355,6.37304688 C61.2653497,6.19531161 61.5647445,6.10644531 61.8821289,6.10644531 C62.2587584,6.10644531 62.5835436,6.19636954 62.8564941,6.3762207 C63.1294447,6.55607186 63.3367994,6.81314937 63.4785645,7.14746094 C63.6203295,7.4817725 63.6912109,7.99592752 63.6912109,8.68994141 L63.6912109,13 L62.2249023,13 L62.2249023,9.14697266 C62.2249023,8.47411773 62.1656581,8.02661244 62.047168,7.80444336 C61.9286778,7.58227428 61.7297866,7.47119141 61.4504883,7.47119141 C61.1246403,7.47119141 60.8622731,7.62670743 60.6633789,7.93774414 C60.4644847,8.24878085 60.3650391,8.85709183 60.3650391,9.76269531 L60.3650391,13 L58.8987305,13 L58.8987305,9.30566406 C58.8987305,8.57356405 58.858529,8.10172632 58.778125,7.89013672 C58.6723302,7.61083845 58.4586279,7.47119141 58.1370117,7.47119141 C57.9211903,7.47119141 57.7222991,7.54313079 57.540332,7.68701172 C57.358365,7.83089265 57.2271814,8.04142114 57.1467773,8.31860352 C57.0663733,8.59578589 57.0261719,9.06444982 57.0261719,9.72460938 L57.0261719,13 L55.5598633,13 L55.5598633,6.25878906 Z M67.7067383,10.8544922 L69.1603516,11.152832 C68.9656891,11.8299188 68.6631205,12.3324365 68.2526367,12.6604004 C67.8421529,12.9883643 67.3428089,13.1523438 66.7545898,13.1523438 C65.937854,13.1523438 65.3073264,12.8793973 64.8629883,12.3334961 C64.3382461,11.6987273 64.0758789,10.8100643 64.0758789,9.66748047 C64.0758789,8.5418238 64.3403619,7.64046562 64.8693359,6.96337891 C65.3179059,6.39208699 65.8976527,6.10644531 66.6085937,6.10644531 C67.3999389,6.10644531 68.0198871,6.39843458 68.468457,6.98242188 C68.9847357,7.65104501 69.2428711,8.63703775 69.2428711,9.94042969 L69.2365234,10.1435547 L65.5739258,10.1435547 C65.5823894,10.6767605 65.7019357,11.089354 65.9325684,11.3813477 C66.163201,11.6733413 66.4414372,11.8193359 66.7672852,11.8193359 C67.2370141,11.8193359 67.550162,11.4977246 67.7067383,10.8544922 Z M67.7892578,9.05175781 C67.7765624,8.52701561 67.6644216,8.13240692 67.452832,7.86791992 C67.2412424,7.60343292 66.9894546,7.47119141 66.6974609,7.47119141 C66.3885401,7.47119141 66.1282888,7.60872258 65.9166992,7.88378906 C65.7008778,8.16308733 65.5950846,8.55240636 65.5993164,9.05175781 L67.7892578,9.05175781 Z M71.1827148,13 L69.7164063,13 L69.7164063,6.25878906 L71.0748047,6.25878906 L71.0748047,7.21728516 C71.3075532,6.76871521 71.5159659,6.47143628 71.7000488,6.32543945 C71.8841318,6.17944263 72.0967761,6.10644531 72.3379883,6.10644531 C72.6722998,6.10644531 72.9917954,6.21858612 73.2964844,6.44287109 L72.8394531,7.99804688 C72.598241,7.80338444 72.3697276,7.70605469 72.1539063,7.70605469 C71.9507802,7.70605469 71.7719897,7.78116787 71.6175293,7.93139648 C71.4630689,8.0816251 71.351986,8.35351366 71.2842773,8.74707031 C71.2165687,9.14062697 71.1827148,9.86425254 71.1827148,10.9179688 L71.1827148,13 Z M72.9321289,9.53417969 C72.9321289,8.87402014 73.0633125,8.27311469 73.3256836,7.73144531 C73.5880547,7.18977594 73.9308247,6.78353 74.3540039,6.51269531 C74.7771831,6.24186062 75.2532526,6.10644531 75.7822266,6.10644531 C76.6709029,6.10644531 77.3691381,6.45450498 77.8769531,7.15063477 C78.3847682,7.84676455 78.6386719,8.66031436 78.6386719,9.59130859 C78.6386719,10.2853225 78.5064304,10.9116183 78.2419434,11.4702148 C77.9774564,12.0288114 77.6304546,12.4488104 77.2009277,12.7302246 C76.7714008,13.0116388 76.300621,13.1523438 75.7885742,13.1523438 C74.9676066,13.1523438 74.2862983,12.8391958 73.7446289,12.2128906 C73.2029595,11.5865854 72.9321289,10.6936907 72.9321289,9.53417969 Z M74.4301758,9.62939453 C74.4301758,10.310713 74.5634752,10.825926 74.8300781,11.1750488 C75.096681,11.5241717 75.4182924,11.6987305 75.7949219,11.6987305 C76.1630878,11.6987305 76.4783516,11.5231137 76.7407227,11.171875 C77.0030938,10.8206363 77.1342773,10.3022495 77.1342773,9.61669922 C77.1342773,8.94807608 77.0009779,8.4381528 76.734375,8.08691406 C76.4677721,7.73567533 76.1482766,7.56005859 75.7758789,7.56005859 C75.407713,7.56005859 75.0913913,7.73567533 74.8269043,8.08691406 C74.5624173,8.4381528 74.4301758,8.95230781 74.4301758,9.62939453 Z M83.4070313,13 L80.6838867,3.69433594 L82.3533203,3.69433594 L84.2830078,10.581543 L86.1492188,3.69433594 L87.7869141,3.69433594 L85.0574219,13 L83.4070313,13 Z M90.5329102,10.8544922 L91.9865234,11.152832 C91.791861,11.8299188 91.4892924,12.3324365 91.0788086,12.6604004 C90.6683248,12.9883643 90.1689808,13.1523438 89.5807617,13.1523438 C88.7640259,13.1523438 88.1334983,12.8793973 87.6891602,12.3334961 C87.1644179,11.6987273 86.9020508,10.8100643 86.9020508,9.66748047 C86.9020508,8.5418238 87.1665338,7.64046562 87.6955078,6.96337891 C88.1440778,6.39208699 88.7238246,6.10644531 89.4347656,6.10644531 C90.2261107,6.10644531 90.846059,6.39843458 91.2946289,6.98242188 C91.8109075,7.65104501 92.069043,8.63703775 92.069043,9.94042969 L92.0626953,10.1435547 L88.4000977,10.1435547 C88.4085612,10.6767605 88.5281076,11.089354 88.7587402,11.3813477 C88.9893729,11.6733413 89.267609,11.8193359 89.593457,11.8193359 C90.0631859,11.8193359 90.3763339,11.4977246 90.5329102,10.8544922 Z M90.6154297,9.05175781 C90.6027343,8.52701561 90.4905935,8.13240692 90.2790039,7.86791992 C90.0674143,7.60343292 89.8156265,7.47119141 89.5236328,7.47119141 C89.214712,7.47119141 88.9544607,7.60872258 88.7428711,7.88378906 C88.5270497,8.16308733 88.4212565,8.55240636 88.4254883,9.05175781 L90.6154297,9.05175781 Z M94.0088867,13 L92.5425781,13 L92.5425781,6.25878906 L93.9009766,6.25878906 L93.9009766,7.21728516 C94.1337251,6.76871521 94.3421378,6.47143628 94.5262207,6.32543945 C94.7103037,6.17944263 94.922948,6.10644531 95.1641602,6.10644531 C95.4984717,6.10644531 95.8179672,6.21858612 96.1226563,6.44287109 L95.665625,7.99804688 C95.4244129,7.80338444 95.1958995,7.70605469 94.9800781,7.70605469 C94.7769521,7.70605469 94.5981616,7.78116787 94.4437012,7.93139648 C94.2892408,8.0816251 94.1781579,8.35351366 94.1104492,8.74707031 C94.0427405,9.14062697 94.0088867,9.86425254 94.0088867,10.9179688 L94.0088867,13 Z M101.172852,13 L99.8081055,13 L99.8081055,12.0097656 C99.5838205,12.3906269 99.3193375,12.6762686 99.0146484,12.8666992 C98.7099594,13.0571299 98.3968115,13.1523438 98.0751953,13.1523438 C97.4573537,13.1523438 96.9188662,12.8444855 96.4597168,12.2287598 C96.0005674,11.613034 95.7709961,10.7338924 95.7709961,9.59130859 C95.7709961,8.44026117 95.9952777,7.57169889 96.4438477,6.9855957 C96.8924176,6.39949251 97.4446582,6.10644531 98.1005859,6.10644531 C98.4095068,6.10644531 98.6983222,6.18473229 98.967041,6.34130859 C99.2357598,6.4978849 99.482258,6.73274583 99.706543,7.04589844 L99.706543,3.69433594 L101.172852,3.69433594 L101.172852,13 Z M97.269043,9.48339844 C97.269043,10.0927765 97.3208816,10.5466294 97.4245605,10.8449707 C97.5282395,11.143312 97.6763499,11.3675936 97.8688965,11.5178223 C98.061443,11.6680509 98.2783191,11.7431641 98.5195312,11.7431641 C98.8411474,11.7431641 99.1204415,11.5696632 99.3574219,11.2226562 C99.5944022,10.8756493 99.7128906,10.3530308 99.7128906,9.65478516 C99.7128906,8.88036722 99.597576,8.32283699 99.3669434,7.98217773 C99.1363107,7.64151848 98.8432635,7.47119141 98.487793,7.47119141 C98.1492496,7.47119141 97.8614921,7.63834468 97.6245117,7.97265625 C97.3875314,8.30696782 97.269043,8.81054351 97.269043,9.48339844 Z M105.169336,10.8544922 L106.622949,11.152832 C106.428287,11.8299188 106.125718,12.3324365 105.715234,12.6604004 C105.304751,12.9883643 104.805407,13.1523438 104.217188,13.1523438 C103.400452,13.1523438 102.769924,12.8793973 102.325586,12.3334961 C101.800844,11.6987273 101.538477,10.8100643 101.538477,9.66748047 C101.538477,8.5418238 101.80296,7.64046562 102.331934,6.96337891 C102.780504,6.39208699 103.36025,6.10644531 104.071191,6.10644531 C104.862537,6.10644531 105.482485,6.39843458 105.931055,6.98242188 C106.447333,7.65104501 106.705469,8.63703775 106.705469,9.94042969 L106.699121,10.1435547 L103.036523,10.1435547 C103.044987,10.6767605 103.164533,11.089354 103.395166,11.3813477 C103.625799,11.6733413 103.904035,11.8193359 104.229883,11.8193359 C104.699612,11.8193359 105.01276,11.4977246 105.169336,10.8544922 Z M105.251855,9.05175781 C105.23916,8.52701561 105.127019,8.13240692 104.91543,7.86791992 C104.70384,7.60343292 104.452052,7.47119141 104.160059,7.47119141 C103.851138,7.47119141 103.590886,7.60872258 103.379297,7.88378906 C103.163475,8.16308733 103.057682,8.55240636 103.061914,9.05175781 L105.251855,9.05175781 Z" id="Numero-Verde" fill="#159B3C"></path>
            <path d="M44.9550781,32.4130859 C44.1249958,31.9833963 43.5000021,31.3974646 43.0800781,30.6552734 C42.6601542,29.9130822 42.4501953,29.0195365 42.4501953,27.9746094 C42.4501953,26.2851478 42.9287062,24.9399464 43.8857422,23.9389648 C44.8427782,22.9379833 46.1318278,22.4375 47.7529297,22.4375 C49.4716883,22.4375 50.7802689,22.9721626 51.6787109,24.0415039 C52.5771529,25.1108452 53.0263672,26.4121017 53.0263672,27.9453125 C53.0263672,28.9902396 52.8090842,29.8959923 52.3745117,30.6625977 C51.9399392,31.4292031 51.3466834,32.0126933 50.5947266,32.4130859 C51.600591,32.9013696 52.3525366,33.5873979 52.8505859,34.4711914 C53.3486353,35.3549849 53.5976562,36.4413998 53.5976562,37.7304688 C53.5976562,39.0586004 53.3510767,40.2304637 52.8579102,41.2460938 C52.3647436,42.2617238 51.6835981,43.0380833 50.8144531,43.5751953 C49.9453082,44.1123074 48.9687554,44.3808594 47.8847656,44.3808594 C46.1855384,44.3808594 44.7817438,43.7924864 43.6733398,42.6157227 C42.5649359,41.438959 42.0107422,39.8545021 42.0107422,37.8623047 C42.0107422,36.5732357 42.2646459,35.4648484 42.7724609,34.5371094 C43.280276,33.6093704 44.0078078,32.9013696 44.9550781,32.4130859 Z M45.6435547,28.2675781 C45.6435547,29.1074261 45.8413066,29.7519509 46.2368164,30.2011719 C46.6323262,30.6503929 47.1328095,30.875 47.7382812,30.875 C48.3535187,30.875 48.8613261,30.6503929 49.2617188,30.2011719 C49.6621114,29.7519509 49.8623047,29.1074261 49.8623047,28.2675781 C49.8623047,27.4570272 49.6645528,26.8271507 49.269043,26.3779297 C48.8735332,25.9287087 48.3779327,25.7041016 47.7822266,25.7041016 C47.1572234,25.7041016 46.6445333,25.9311501 46.2441406,26.3852539 C45.843748,26.8393577 45.6435547,27.4667929 45.6435547,28.2675781 Z M45.3359375,37.4667969 C45.3359375,38.6191464 45.5800757,39.5078094 46.0683594,40.1328125 C46.5566431,40.7578156 47.1425747,41.0703125 47.8261719,41.0703125 C48.509769,41.0703125 49.0834938,40.7724639 49.5473633,40.1767578 C50.0112328,39.5810517 50.2431641,38.687506 50.2431641,37.4960938 C50.2431641,36.470698 50.00635,35.6601592 49.5327148,35.0644531 C49.0590797,34.468747 48.4755894,34.1708984 47.7822266,34.1708984 C47.0986294,34.1708984 46.5200219,34.4711884 46.0463867,35.0717773 C45.5727515,35.6723663 45.3359375,36.4706981 45.3359375,37.4667969 Z M60.4345703,22.4375 C62.1435632,22.4375 63.5253854,23.2504802 64.5800781,24.8764648 C65.6347709,26.5024495 66.1621094,29.3466594 66.1621094,33.4091797 C66.1621094,37.4619343 65.6347709,40.3012614 64.5800781,41.9272461 C63.5253854,43.5532308 62.148446,44.3662109 60.4492188,44.3662109 C58.7402258,44.3662109 57.3584037,43.5605549 56.3037109,41.9492188 C55.2490182,40.3378826 54.7216797,37.4765831 54.7216797,33.3652344 C54.7216797,29.3320111 55.2490182,26.5024495 56.3037109,24.8764648 C57.3584037,23.2504802 58.7353431,22.4375 60.4345703,22.4375 Z M60.4345703,25.8505859 C59.7705045,25.8505859 59.2407246,26.2900347 58.8452148,27.1689453 C58.4497051,28.047856 58.2519531,30.1279133 58.2519531,33.4091797 C58.2519531,36.6904461 58.4497051,38.768062 58.8452148,39.6420898 C59.2407246,40.5161177 59.7705045,40.953125 60.4345703,40.953125 C61.1084018,40.953125 61.640623,40.5136763 62.03125,39.6347656 C62.421877,38.755855 62.6171875,36.6806804 62.6171875,33.4091797 C62.6171875,30.1279133 62.421877,28.047856 62.03125,27.1689453 C61.640623,26.2900347 61.1084018,25.8505859 60.4345703,25.8505859 Z M73.1162109,22.4375 C74.8252039,22.4375 76.207026,23.2504802 77.2617188,24.8764648 C78.3164115,26.5024495 78.84375,29.3466594 78.84375,33.4091797 C78.84375,37.4619343 78.3164115,40.3012614 77.2617188,41.9272461 C76.207026,43.5532308 74.8300866,44.3662109 73.1308594,44.3662109 C71.4218665,44.3662109 70.0400443,43.5605549 68.9853516,41.9492188 C67.9306588,40.3378826 67.4033203,37.4765831 67.4033203,33.3652344 C67.4033203,29.3320111 67.9306588,26.5024495 68.9853516,24.8764648 C70.0400443,23.2504802 71.4169837,22.4375 73.1162109,22.4375 Z M73.1162109,25.8505859 C72.4521451,25.8505859 71.9223653,26.2900347 71.5268555,27.1689453 C71.1313457,28.047856 70.9335938,30.1279133 70.9335938,33.4091797 C70.9335938,36.6904461 71.1313457,38.768062 71.5268555,39.6420898 C71.9223653,40.5161177 72.4521451,40.953125 73.1162109,40.953125 C73.7900424,40.953125 74.3222637,40.5136763 74.7128906,39.6347656 C75.1035176,38.755855 75.2988281,36.6806804 75.2988281,33.4091797 C75.2988281,30.1279133 75.1035176,28.047856 74.7128906,27.1689453 C74.3222637,26.2900347 73.7900424,25.8505859 73.1162109,25.8505859 Z M88.8408203,32.4130859 C88.010738,31.9833963 87.3857443,31.3974646 86.9658203,30.6552734 C86.5458963,29.9130822 86.3359375,29.0195365 86.3359375,27.9746094 C86.3359375,26.2851478 86.8144483,24.9399464 87.7714844,23.9389648 C88.7285204,22.9379833 90.01757,22.4375 91.6386719,22.4375 C93.3574305,22.4375 94.6660111,22.9721626 95.5644531,24.0415039 C96.4628951,25.1108452 96.9121094,26.4121017 96.9121094,27.9453125 C96.9121094,28.9902396 96.6948264,29.8959923 96.2602539,30.6625977 C95.8256814,31.4292031 95.2324256,32.0126933 94.4804688,32.4130859 C95.4863332,32.9013696 96.2382788,33.5873979 96.7363281,34.4711914 C97.2343775,35.3549849 97.4833984,36.4413998 97.4833984,37.7304688 C97.4833984,39.0586004 97.2368189,40.2304637 96.7436523,41.2460938 C96.2504858,42.2617238 95.5693403,43.0380833 94.7001953,43.5751953 C93.8310503,44.1123074 92.8544976,44.3808594 91.7705078,44.3808594 C90.0712806,44.3808594 88.667486,43.7924864 87.559082,42.6157227 C86.4506781,41.438959 85.8964844,39.8545021 85.8964844,37.8623047 C85.8964844,36.5732357 86.1503881,35.4648484 86.6582031,34.5371094 C87.1660182,33.6093704 87.89355,32.9013696 88.8408203,32.4130859 Z M89.5292969,28.2675781 C89.5292969,29.1074261 89.7270488,29.7519509 90.1225586,30.2011719 C90.5180684,30.6503929 91.0185517,30.875 91.6240234,30.875 C92.2392609,30.875 92.7470683,30.6503929 93.1474609,30.2011719 C93.5478536,29.7519509 93.7480469,29.1074261 93.7480469,28.2675781 C93.7480469,27.4570272 93.5502949,26.8271507 93.1547852,26.3779297 C92.7592754,25.9287087 92.2636749,25.7041016 91.6679688,25.7041016 C91.0429656,25.7041016 90.5302754,25.9311501 90.1298828,26.3852539 C89.7294902,26.8393577 89.5292969,27.4667929 89.5292969,28.2675781 Z M89.2216797,37.4667969 C89.2216797,38.6191464 89.4658179,39.5078094 89.9541016,40.1328125 C90.4423853,40.7578156 91.0283169,41.0703125 91.7119141,41.0703125 C92.3955112,41.0703125 92.969236,40.7724639 93.4331055,40.1767578 C93.896975,39.5810517 94.1289062,38.687506 94.1289062,37.4960938 C94.1289062,36.470698 93.8920922,35.6601592 93.418457,35.0644531 C92.9448219,34.468747 92.3613316,34.1708984 91.6679688,34.1708984 C90.9843716,34.1708984 90.4057641,34.4711884 89.9321289,35.0717773 C89.4584937,35.6723663 89.2216797,36.4706981 89.2216797,37.4667969 Z M101.522461,32.4130859 C100.692379,31.9833963 100.067385,31.3974646 99.6474609,30.6552734 C99.227537,29.9130822 99.0175781,29.0195365 99.0175781,27.9746094 C99.0175781,26.2851478 99.496089,24.9399464 100.453125,23.9389648 C101.410161,22.9379833 102.699211,22.4375 104.320312,22.4375 C106.039071,22.4375 107.347652,22.9721626 108.246094,24.0415039 C109.144536,25.1108452 109.59375,26.4121017 109.59375,27.9453125 C109.59375,28.9902396 109.376467,29.8959923 108.941895,30.6625977 C108.507322,31.4292031 107.914066,32.0126933 107.162109,32.4130859 C108.167974,32.9013696 108.919919,33.5873979 109.417969,34.4711914 C109.916018,35.3549849 110.165039,36.4413998 110.165039,37.7304688 C110.165039,39.0586004 109.918459,40.2304637 109.425293,41.2460938 C108.932126,42.2617238 108.250981,43.0380833 107.381836,43.5751953 C106.512691,44.1123074 105.536138,44.3808594 104.452148,44.3808594 C102.752921,44.3808594 101.349127,43.7924864 100.240723,42.6157227 C99.1323187,41.438959 98.578125,39.8545021 98.578125,37.8623047 C98.578125,36.5732357 98.8320287,35.4648484 99.3398438,34.5371094 C99.8476588,33.6093704 100.575191,32.9013696 101.522461,32.4130859 Z M102.210938,28.2675781 C102.210938,29.1074261 102.408689,29.7519509 102.804199,30.2011719 C103.199709,30.6503929 103.700192,30.875 104.305664,30.875 C104.920902,30.875 105.428709,30.6503929 105.829102,30.2011719 C106.229494,29.7519509 106.429688,29.1074261 106.429688,28.2675781 C106.429688,27.4570272 106.231936,26.8271507 105.836426,26.3779297 C105.440916,25.9287087 104.945315,25.7041016 104.349609,25.7041016 C103.724606,25.7041016 103.211916,25.9311501 102.811523,26.3852539 C102.411131,26.8393577 102.210938,27.4667929 102.210938,28.2675781 Z M101.90332,37.4667969 C101.90332,38.6191464 102.147458,39.5078094 102.635742,40.1328125 C103.124026,40.7578156 103.709958,41.0703125 104.393555,41.0703125 C105.077152,41.0703125 105.650877,40.7724639 106.114746,40.1767578 C106.578616,39.5810517 106.810547,38.687506 106.810547,37.4960938 C106.810547,36.470698 106.573733,35.6601592 106.100098,35.0644531 C105.626462,34.468747 105.042972,34.1708984 104.349609,34.1708984 C103.666012,34.1708984 103.087405,34.4711884 102.61377,35.0717773 C102.140134,35.6723663 101.90332,36.4706981 101.90332,37.4667969 Z M111.171875,38.3017578 L114.438477,37.8183594 C114.526368,38.8339895 114.804685,39.6103489 115.273438,40.1474609 C115.74219,40.684573 116.293942,40.953125 116.928711,40.953125 C117.622074,40.953125 118.208005,40.6357454 118.686523,40.0009766 C119.165041,39.3662078 119.404297,38.4873103 119.404297,37.3642578 C119.404297,36.3193307 119.174807,35.4990264 118.71582,34.9033203 C118.256834,34.3076142 117.700199,34.0097656 117.045898,34.0097656 C116.616209,34.0097656 116.103519,34.1123037 115.507812,34.3173828 L115.874023,30.9628906 C116.743168,30.982422 117.431638,30.7480493 117.939453,30.2597656 C118.437502,29.7714819 118.686523,29.0830123 118.686523,28.1943359 C118.686523,27.4521447 118.505861,26.8710958 118.144531,26.4511719 C117.783201,26.0312479 117.319339,25.8212891 116.75293,25.8212891 C116.186521,25.8212891 115.695803,26.0629859 115.280762,26.5463867 C114.865721,27.0297876 114.619141,27.7451125 114.541016,28.6923828 L111.420898,28.0478516 C111.743166,26.0849511 112.373042,24.6591841 113.310547,23.7705078 C114.248052,22.8818315 115.42968,22.4375 116.855469,22.4375 C118.457039,22.4375 119.728999,23.0087833 120.671387,24.1513672 C121.613774,25.293951 122.084961,26.5585868 122.084961,27.9453125 C122.084961,28.8828172 121.872561,29.7275353 121.447754,30.4794922 C121.022947,31.2314491 120.385746,31.8906222 119.536133,32.4570312 C120.522466,32.7207044 121.32568,33.3017533 121.945801,34.2001953 C122.565921,35.0986373 122.875977,36.2216729 122.875977,37.5693359 C122.875977,39.5322364 122.292486,41.1557553 121.125488,42.4399414 C119.95849,43.7241275 118.569344,44.3662109 116.958008,44.3662109 C115.415031,44.3662109 114.108892,43.8242242 113.039551,42.7402344 C111.970209,41.6562446 111.347657,40.1767672 111.171875,38.3017578 Z M129.683594,22.4375 C131.392587,22.4375 132.774409,23.2504802 133.829102,24.8764648 C134.883794,26.5024495 135.411133,29.3466594 135.411133,33.4091797 C135.411133,37.4619343 134.883794,40.3012614 133.829102,41.9272461 C132.774409,43.5532308 131.397469,44.3662109 129.698242,44.3662109 C127.989249,44.3662109 126.607427,43.5605549 125.552734,41.9492188 C124.498042,40.3378826 123.970703,37.4765831 123.970703,33.3652344 C123.970703,29.3320111 124.498042,26.5024495 125.552734,24.8764648 C126.607427,23.2504802 127.984367,22.4375 129.683594,22.4375 Z M129.683594,25.8505859 C129.019528,25.8505859 128.489748,26.2900347 128.094238,27.1689453 C127.698728,28.047856 127.500977,30.1279133 127.500977,33.4091797 C127.500977,36.6904461 127.698728,38.768062 128.094238,39.6420898 C128.489748,40.5161177 129.019528,40.953125 129.683594,40.953125 C130.357425,40.953125 130.889646,40.5136763 131.280273,39.6347656 C131.6709,38.755855 131.866211,36.6806804 131.866211,33.4091797 C131.866211,30.1279133 131.6709,28.047856 131.280273,27.1689453 C130.889646,26.2900347 130.357425,25.8505859 129.683594,25.8505859 Z M143.273438,44 L143.273438,39.6787109 L136.066406,39.6787109 L136.066406,36.0751953 L143.698242,22.4375 L146.540039,22.4375 L146.540039,36.0605469 L148.722656,36.0605469 L148.722656,39.6787109 L146.540039,39.6787109 L146.540039,44 L143.273438,44 Z M143.273438,36.0605469 L143.273438,28.7216797 L139.230469,36.0605469 L143.273438,36.0605469 Z M160.774414,27.7841797 L157.507812,28.2236328 C157.351562,26.6220623 156.71192,25.8212891 155.588867,25.8212891 C154.856442,25.8212891 154.248538,26.2216757 153.765137,27.0224609 C153.281736,27.8232462 152.976563,29.439441 152.849609,31.8710938 C153.269533,31.265622 153.738279,30.811525 154.255859,30.5087891 C154.77344,30.2060532 155.344723,30.0546875 155.969727,30.0546875 C157.346687,30.0546875 158.547846,30.6967709 159.573242,31.980957 C160.598638,33.2651431 161.111328,34.971669 161.111328,37.1005859 C161.111328,39.3662223 160.569341,41.1435482 159.485352,42.4326172 C158.401362,43.7216861 157.058602,44.3662109 155.457031,44.3662109 C153.69921,44.3662109 152.241705,43.528817 151.084473,41.8540039 C149.92724,40.1791908 149.348633,37.4033397 149.348633,33.5263672 C149.348633,29.5908006 149.949213,26.7587977 151.150391,25.0302734 C152.351569,23.3017492 153.894522,22.4375 155.779297,22.4375 C157.078131,22.4375 158.174312,22.8793901 159.067871,23.7631836 C159.96143,24.6469771 160.530272,25.9872957 160.774414,27.7841797 Z M153.142578,36.7636719 C153.142578,38.1211005 153.39404,39.1586878 153.896973,39.8764648 C154.399905,40.5942419 154.97363,40.953125 155.618164,40.953125 C156.243167,40.953125 156.763182,40.6552764 157.178223,40.0595703 C157.593264,39.4638642 157.800781,38.4873115 157.800781,37.1298828 C157.800781,35.7236258 157.576174,34.6982454 157.126953,34.0537109 C156.677732,33.4091765 156.121097,33.0869141 155.457031,33.0869141 C154.812497,33.0869141 154.265627,33.3945282 153.816406,34.0097656 C153.367185,34.6250031 153.142578,35.5429626 153.142578,36.7636719 Z" id="800-883046" fill="#159B3C"></path>
            <path d="M110.704102,11.4746094 L161.930764,11.4746094 C165.244472,11.4746094 167.930764,14.1609009 167.930764,17.4746094 L167.930764,50.1279672 C167.930764,53.4416757 165.244472,56.1279672 161.930764,56.1279672 L42.9838626,56.1279672" id="Path-2" stroke="#159B3C" stroke-width="2"></path>
            <path d="M43.8818359,75 L43.8818359,65.0605469 L45.5361328,65.0605469 L45.5361328,73.3115234 L49.6650391,73.3115234 L49.6650391,75 L43.8818359,75 Z M54.7509766,75 L54.7509766,73.9130859 C54.5322255,74.305015 54.245119,74.6114898 53.8896484,74.8325195 C53.5341779,75.0535493 53.1627624,75.1640625 52.7753906,75.1640625 C52.3834616,75.1640625 52.0325536,75.0615245 51.7226562,74.8564453 C51.4127589,74.6513662 51.1814786,74.3597024 51.0288086,73.9814453 C50.8761386,73.6031882 50.7998047,73.0540401 50.7998047,72.3339844 L50.7998047,67.7402344 L52.3789062,67.7402344 L52.3789062,71.0761719 C52.3789062,72.0286506 52.4028318,72.633625 52.4506836,72.8911133 C52.4985354,73.1486015 52.6044914,73.3479811 52.7685547,73.4892578 C52.932618,73.6305346 53.1308582,73.7011719 53.3632812,73.7011719 C53.6276055,73.7011719 53.8714182,73.6088876 54.0947266,73.4243164 C54.318035,73.2397452 54.4650062,73.0027684 54.5356445,72.7133789 C54.6062829,72.4239894 54.6416016,71.7871143 54.6416016,70.8027344 L54.6416016,67.7402344 L56.2138672,67.7402344 L56.2138672,75 L54.7509766,75 Z M63.2685547,75 L61.6894531,75 L61.6894531,71.2949219 C61.6894531,70.5520796 61.659831,70.0576184 61.6005859,69.8115234 C61.5413408,69.5654285 61.4308276,69.3763027 61.269043,69.2441406 C61.1072583,69.1119785 60.9238292,69.0458984 60.71875,69.0458984 C60.4544258,69.0458984 60.2151703,69.1313468 60.0009766,69.3022461 C59.7867828,69.4731454 59.6363937,69.7089829 59.5498047,70.0097656 C59.4632157,70.3105484 59.4199219,70.8779255 59.4199219,71.7119141 L59.4199219,75 L57.8408203,75 L57.8408203,67.7402344 L59.3037109,67.7402344 L59.3037109,68.8066406 C59.5634779,68.3964823 59.8562809,68.0888682 60.1821289,67.8837891 C60.5079769,67.6787099 60.8691386,67.5761719 61.265625,67.5761719 C61.7259138,67.5761719 62.114419,67.6957996 62.4311523,67.9350586 C62.7478857,68.1743176 62.9666335,68.4819317 63.0874023,68.8579102 C63.2081712,69.2338886 63.2685547,69.7773402 63.2685547,70.4882812 L63.2685547,75 Z M64.4033203,72.3271484 L64.4033203,70.40625 L67.5,70.40625 L67.5,72.3271484 L64.4033203,72.3271484 Z M70.7949219,75 L67.8623047,64.9785156 L69.6601562,64.9785156 L71.7382812,72.3955078 L73.7480469,64.9785156 L75.5117188,64.9785156 L72.5722656,75 L70.7949219,75 Z M79.7978516,72.6894531 L81.3632812,73.0107422 C81.1536448,73.7399125 80.8278017,74.2810855 80.3857422,74.6342773 C79.9436827,74.9874692 79.4059276,75.1640625 78.7724609,75.1640625 C77.8928992,75.1640625 77.2138696,74.8701201 76.7353516,74.2822266 C76.1702446,73.5986294 75.8876953,72.6416077 75.8876953,71.4111328 C75.8876953,70.1988872 76.1725232,69.2281938 76.7421875,68.4990234 C77.2252628,67.883786 77.8496055,67.5761719 78.6152344,67.5761719 C79.4674522,67.5761719 80.1350887,67.8906219 80.6181641,68.5195312 C81.1741564,69.2395869 81.4521484,70.3014253 81.4521484,71.7050781 L81.4453125,71.9238281 L77.5009766,71.9238281 C77.5100912,72.4980497 77.6388334,72.9423812 77.887207,73.2568359 C78.1355807,73.5712906 78.4352196,73.7285156 78.7861328,73.7285156 C79.2919947,73.7285156 79.6292309,73.3821649 79.7978516,72.6894531 Z M79.8867188,70.7480469 C79.8730468,70.1829399 79.7522798,69.7579767 79.5244141,69.4731445 C79.2965483,69.1883124 79.0253922,69.0458984 78.7109375,69.0458984 C78.3782535,69.0458984 78.0979829,69.1940089 77.8701172,69.4902344 C77.6376942,69.7910171 77.523763,70.2102838 77.5283203,70.7480469 L79.8867188,70.7480469 Z M88.1445312,75 L86.5654297,75 L86.5654297,71.2949219 C86.5654297,70.5520796 86.5358076,70.0576184 86.4765625,69.8115234 C86.4173174,69.5654285 86.3068042,69.3763027 86.1450195,69.2441406 C85.9832349,69.1119785 85.7998057,69.0458984 85.5947266,69.0458984 C85.3304023,69.0458984 85.0911469,69.1313468 84.8769531,69.3022461 C84.6627593,69.4731454 84.5123702,69.7089829 84.4257812,70.0097656 C84.3391923,70.3105484 84.2958984,70.8779255 84.2958984,71.7119141 L84.2958984,75 L82.7167969,75 L82.7167969,67.7402344 L84.1796875,67.7402344 L84.1796875,68.8066406 C84.4394544,68.3964823 84.7322575,68.0888682 85.0581055,67.8837891 C85.3839535,67.6787099 85.7451152,67.5761719 86.1416016,67.5761719 C86.6018903,67.5761719 86.9903956,67.6957996 87.3071289,67.9350586 C87.6238623,68.1743176 87.8426101,68.4819317 87.9633789,68.8579102 C88.0841477,69.2338886 88.1445312,69.7773402 88.1445312,70.4882812 L88.1445312,75 Z M92.6289062,72.6826172 L94.1533203,72.4775391 C94.2262373,73.2203813 94.5224583,73.5917969 95.0419922,73.5917969 C95.3929054,73.5917969 95.6800119,73.4060891 95.9033203,73.034668 C96.1266287,72.6632468 96.270182,71.9101619 96.3339844,70.7753906 C96.1380199,71.0533868 95.9169934,71.2630201 95.6708984,71.4042969 C95.4248035,71.5455736 95.1513687,71.6162109 94.8505859,71.6162109 C94.2262339,71.6162109 93.6736678,71.3177113 93.1928711,70.7207031 C92.7120744,70.1236949 92.4716797,69.3307341 92.4716797,68.3417969 C92.4716797,67.2844999 92.7246068,66.4528025 93.2304688,65.8466797 C93.7363307,65.2405569 94.3606734,64.9375 95.1035156,64.9375 C95.9329469,64.9375 96.6165338,65.3282839 97.1542969,66.1098633 C97.69206,66.8914427 97.9609375,68.1868399 97.9609375,69.9960938 C97.9609375,71.8372488 97.6806669,73.1611288 97.1201172,73.9677734 C96.5595675,74.7744181 95.8326868,75.1777344 94.9394531,75.1777344 C94.3196584,75.1777344 93.8081075,74.9737976 93.4047852,74.565918 C93.0014628,74.1580383 92.7428391,73.5302777 92.6289062,72.6826172 Z M96.1972656,68.4853516 C96.1972656,67.8564422 96.0787772,67.3733741 95.8417969,67.0361328 C95.6048165,66.6988915 95.335939,66.5302734 95.0351562,66.5302734 C94.7434881,66.5302734 94.5008148,66.6692694 94.3071289,66.9472656 C94.113443,67.2252618 94.0166016,67.6878223 94.0166016,68.3349609 C94.0166016,68.9820996 94.1225575,69.4560532 94.3344727,69.7568359 C94.5463878,70.0576187 94.8072901,70.2080078 95.1171875,70.2080078 C95.4134129,70.2080078 95.6674794,70.0644546 95.8793945,69.7773438 C96.0913097,69.4902329 96.1972656,69.0595732 96.1972656,68.4853516 Z M99.3212891,75 L99.3212891,73.0791016 L100.900391,73.0791016 L100.900391,75 L99.3212891,75 Z M104.837891,64.9375 C105.635421,64.9375 106.280271,65.3168907 106.772461,66.0756836 C107.264651,66.8344765 107.510742,68.1617744 107.510742,70.0576172 C107.510742,71.9489027 107.264651,73.273922 106.772461,74.0327148 C106.280271,74.7915077 105.637699,75.1708984 104.844727,75.1708984 C104.047197,75.1708984 103.402346,74.7949256 102.910156,74.0429688 C102.417966,73.2910119 102.171875,71.9557388 102.171875,70.0371094 C102.171875,68.1549385 102.417966,66.8344765 102.910156,66.0756836 C103.402346,65.3168907 104.044918,64.9375 104.837891,64.9375 Z M104.837891,66.5302734 C104.527993,66.5302734 104.280763,66.7353495 104.096191,67.1455078 C103.91162,67.5556661 103.819336,68.5263595 103.819336,70.0576172 C103.819336,71.5888748 103.91162,72.558429 104.096191,72.9663086 C104.280763,73.3741882 104.527993,73.578125 104.837891,73.578125 C105.152345,73.578125 105.400715,73.3730489 105.583008,72.9628906 C105.7653,72.5527323 105.856445,71.5843175 105.856445,70.0576172 C105.856445,68.5263595 105.7653,67.5556661 105.583008,67.1455078 C105.400715,66.7353495 105.152345,66.5302734 104.837891,66.5302734 Z M111.222656,64.9375 C112.020186,64.9375 112.665037,65.3168907 113.157227,66.0756836 C113.649417,66.8344765 113.895508,68.1617744 113.895508,70.0576172 C113.895508,71.9489027 113.649417,73.273922 113.157227,74.0327148 C112.665037,74.7915077 112.022465,75.1708984 111.229492,75.1708984 C110.431962,75.1708984 109.787112,74.7949256 109.294922,74.0429688 C108.802732,73.2910119 108.556641,71.9557388 108.556641,70.0371094 C108.556641,68.1549385 108.802732,66.8344765 109.294922,66.0756836 C109.787112,65.3168907 110.429684,64.9375 111.222656,64.9375 Z M111.222656,66.5302734 C110.912759,66.5302734 110.665528,66.7353495 110.480957,67.1455078 C110.296386,67.5556661 110.204102,68.5263595 110.204102,70.0576172 C110.204102,71.5888748 110.296386,72.558429 110.480957,72.9663086 C110.665528,73.3741882 110.912759,73.578125 111.222656,73.578125 C111.537111,73.578125 111.785481,73.3730489 111.967773,72.9628906 C112.150066,72.5527323 112.241211,71.5843175 112.241211,70.0576172 C112.241211,68.5263595 112.150066,67.5556661 111.967773,67.1455078 C111.785481,66.7353495 111.537111,66.5302734 111.222656,66.5302734 Z M114.818359,72.3271484 L114.818359,70.40625 L117.915039,70.40625 L117.915039,72.3271484 L114.818359,72.3271484 Z M122.795898,75 L121.223633,75 L121.223633,67.7607422 C120.635739,68.4215528 119.95671,68.9068995 119.186523,69.2167969 L119.186523,67.4736328 C119.624026,67.2958975 120.077472,66.9780296 120.546875,66.5200195 C121.016278,66.0620094 121.342121,65.5345082 121.524414,64.9375 L122.795898,64.9375 L122.795898,75 Z M125.092773,72.3408203 L126.617188,72.1152344 C126.658203,72.5891951 126.788085,72.9514961 127.006836,73.2021484 C127.225587,73.4528007 127.483071,73.578125 127.779297,73.578125 C128.102866,73.578125 128.376301,73.4300145 128.599609,73.1337891 C128.822918,72.8375636 128.93457,72.4274115 128.93457,71.9033203 C128.93457,71.4156877 128.827475,71.032879 128.613281,70.7548828 C128.399087,70.4768866 128.139324,70.3378906 127.833984,70.3378906 C127.633463,70.3378906 127.394207,70.3857417 127.116211,70.4814453 L127.287109,68.9160156 C127.69271,68.9251303 128.013996,68.8157563 128.250977,68.5878906 C128.4834,68.3600249 128.599609,68.0387391 128.599609,67.6240234 C128.599609,67.2776675 128.5153,67.0065114 128.34668,66.8105469 C128.178059,66.6145824 127.96159,66.5166016 127.697266,66.5166016 C127.432941,66.5166016 127.20394,66.6293934 127.010254,66.8549805 C126.816568,67.0805675 126.701498,67.4143858 126.665039,67.8564453 L125.208984,67.5556641 C125.359376,66.6396439 125.653318,65.9742859 126.09082,65.5595703 C126.528323,65.1448547 127.079749,64.9375 127.745117,64.9375 C128.492517,64.9375 129.086098,65.2040989 129.525879,65.7373047 C129.96566,66.2705105 130.185547,66.8606738 130.185547,67.5078125 C130.185547,67.9453147 130.086427,68.3395165 129.888184,68.6904297 C129.68994,69.0413429 129.39258,69.348957 128.996094,69.6132812 C129.456383,69.7363287 129.831216,70.0074849 130.120605,70.4267578 C130.409995,70.8460307 130.554688,71.370114 130.554688,71.9990234 C130.554688,72.9150436 130.282392,73.6726858 129.737793,74.2719727 C129.193194,74.8712595 128.544926,75.1708984 127.792969,75.1708984 C127.072913,75.1708984 126.463381,74.9179713 125.964355,74.4121094 C125.46533,73.9062475 125.174805,73.2158247 125.092773,72.3408203 Z M131.874023,75 L131.874023,73.0791016 L133.453125,73.0791016 L133.453125,75 L131.874023,75 Z M137.390625,64.9375 C138.188155,64.9375 138.833005,65.3168907 139.325195,66.0756836 C139.817385,66.8344765 140.063477,68.1617744 140.063477,70.0576172 C140.063477,71.9489027 139.817385,73.273922 139.325195,74.0327148 C138.833005,74.7915077 138.190434,75.1708984 137.397461,75.1708984 C136.599931,75.1708984 135.955081,74.7949256 135.462891,74.0429688 C134.970701,73.2910119 134.724609,71.9557388 134.724609,70.0371094 C134.724609,68.1549385 134.970701,66.8344765 135.462891,66.0756836 C135.955081,65.3168907 136.597652,64.9375 137.390625,64.9375 Z M137.390625,66.5302734 C137.080728,66.5302734 136.833497,66.7353495 136.648926,67.1455078 C136.464355,67.5556661 136.37207,68.5263595 136.37207,70.0576172 C136.37207,71.5888748 136.464355,72.558429 136.648926,72.9663086 C136.833497,73.3741882 137.080728,73.578125 137.390625,73.578125 C137.70508,73.578125 137.95345,73.3730489 138.135742,72.9628906 C138.318035,72.5527323 138.40918,71.5843175 138.40918,70.0576172 C138.40918,68.5263595 138.318035,67.5556661 138.135742,67.1455078 C137.95345,66.7353495 137.70508,66.5302734 137.390625,66.5302734 Z M143.775391,64.9375 C144.572921,64.9375 145.217771,65.3168907 145.709961,66.0756836 C146.202151,66.8344765 146.448242,68.1617744 146.448242,70.0576172 C146.448242,71.9489027 146.202151,73.273922 145.709961,74.0327148 C145.217771,74.7915077 144.575199,75.1708984 143.782227,75.1708984 C142.984697,75.1708984 142.339846,74.7949256 141.847656,74.0429688 C141.355466,73.2910119 141.109375,71.9557388 141.109375,70.0371094 C141.109375,68.1549385 141.355466,66.8344765 141.847656,66.0756836 C142.339846,65.3168907 142.982418,64.9375 143.775391,64.9375 Z M143.775391,66.5302734 C143.465493,66.5302734 143.218263,66.7353495 143.033691,67.1455078 C142.84912,67.5556661 142.756836,68.5263595 142.756836,70.0576172 C142.756836,71.5888748 142.84912,72.558429 143.033691,72.9663086 C143.218263,73.3741882 143.465493,73.578125 143.775391,73.578125 C144.089845,73.578125 144.338215,73.3730489 144.520508,72.9628906 C144.7028,72.5527323 144.793945,71.5843175 144.793945,70.0576172 C144.793945,68.5263595 144.7028,67.5556661 144.520508,67.1455078 C144.338215,66.7353495 144.089845,66.5302734 143.775391,66.5302734 Z M43.8134766,91 L43.8134766,80.9785156 L46.2949219,80.9785156 L47.7851562,87.8144531 L49.2617188,80.9785156 L51.75,80.9785156 L51.75,91 L50.2119141,91 L50.2119141,83.1113281 L48.578125,91 L46.9785156,91 L45.3583984,83.1113281 L45.3583984,91 L43.8134766,91 Z M54.5664062,85.9550781 L53.1376953,85.640625 C53.3108733,84.9068974 53.5968405,84.3793961 53.9956055,84.0581055 C54.3943705,83.7368148 54.9674442,83.5761719 55.7148438,83.5761719 C56.3802117,83.5761719 56.8883446,83.6695954 57.2392578,83.8564453 C57.590171,84.0432952 57.8408196,84.2973617 57.9912109,84.6186523 C58.1416023,84.939943 58.2167969,85.5244098 58.2167969,86.3720703 L58.203125,88.6142578 C58.203125,89.2431672 58.2281899,89.7114242 58.2783203,90.019043 C58.3284508,90.3266617 58.4218743,90.6536441 58.5585938,91 L57,91 L56.7949219,90.2070312 C56.5260403,90.5260433 56.2377945,90.7652987 55.9301758,90.9248047 C55.6225571,91.0843107 55.2955746,91.1640625 54.9492188,91.1640625 C54.3704398,91.1640625 53.8964862,90.9692402 53.5273438,90.5795898 C53.1582013,90.1899395 52.9736328,89.6715527 52.9736328,89.0244141 C52.9736328,88.6142558 53.0488274,88.2565119 53.1992188,87.9511719 C53.3496101,87.6458318 53.5615221,87.4020191 53.8349609,87.2197266 C54.1083998,87.037434 54.5458954,86.8756517 55.1474609,86.734375 C55.8766313,86.5657544 56.3847642,86.4085294 56.671875,86.2626953 C56.671875,85.8616516 56.6433922,85.5984707 56.5864258,85.4731445 C56.5294594,85.3478184 56.4246427,85.2452803 56.2719727,85.1655273 C56.1193026,85.0857743 55.9039727,85.0458984 55.6259766,85.0458984 C55.3434231,85.0458984 55.1212573,85.1096999 54.9594727,85.2373047 C54.797688,85.3649095 54.6666672,85.6041649 54.5664062,85.9550781 Z M56.671875,87.5136719 C56.4713532,87.5957035 56.1591818,87.6914057 55.7353516,87.8007812 C55.2477189,87.9283861 54.9287117,88.0696607 54.7783203,88.2246094 C54.6279289,88.3795581 54.5527344,88.5800769 54.5527344,88.8261719 C54.5527344,89.1041681 54.6359041,89.3377269 54.8022461,89.5268555 C54.9685881,89.715984 55.1770821,89.8105469 55.4277344,89.8105469 C55.6510428,89.8105469 55.8720692,89.734213 56.0908203,89.581543 C56.3095714,89.4288729 56.4610998,89.2477224 56.5454102,89.0380859 C56.6297205,88.8284495 56.671875,88.4479194 56.671875,87.8964844 L56.671875,87.5136719 Z M61.2861328,91 L59.7070312,91 L59.7070312,83.7402344 L61.1699219,83.7402344 L61.1699219,84.7724609 C61.4205742,84.2893856 61.6450185,83.9692391 61.8432617,83.8120117 C62.0415049,83.6547844 62.2705065,83.5761719 62.5302734,83.5761719 C62.8903013,83.5761719 63.2343734,83.6969389 63.5625,83.9384766 L63.0703125,85.6132812 C62.8105456,85.4036448 62.5644543,85.2988281 62.3320312,85.2988281 C62.1132802,85.2988281 61.9207365,85.3797192 61.7543945,85.5415039 C61.5880526,85.7032886 61.4684248,85.9960916 61.3955078,86.4199219 C61.3225908,86.8437521 61.2861328,87.6230412 61.2861328,88.7578125 L61.2861328,91 Z M63.3984375,91.1708984 L65.4355469,80.8076172 L66.6181641,80.8076172 L64.5605469,91.1708984 L63.3984375,91.1708984 Z M71.2666016,87.3154297 L71.2666016,85.6269531 L74.8417969,85.6269531 L74.8417969,89.6191406 C74.481769,90.0429709 73.9713575,90.4075506 73.3105469,90.7128906 C72.6497363,91.0182307 71.986657,91.1708984 71.3212891,91.1708984 C70.5100871,91.1708984 69.7945995,90.9715189 69.1748047,90.5727539 C68.5550099,90.1739889 68.0639667,89.5769897 67.7016602,88.7817383 C67.3393537,87.9864869 67.1582031,87.0511121 67.1582031,85.9755859 C67.1582031,84.8727158 67.3416323,83.9293659 67.7084961,83.1455078 C68.0753599,82.3616497 68.5515921,81.7760436 69.137207,81.3886719 C69.7228219,81.0013001 70.4234985,80.8076172 71.2392578,80.8076172 C72.2190804,80.8076172 73.0040661,81.0571264 73.5942383,81.5561523 C74.1844105,82.0551783 74.5638012,82.7877556 74.7324219,83.7539062 L73.0917969,84.1298828 C72.9687494,83.6149063 72.7431657,83.2207045 72.4150391,82.9472656 C72.0869124,82.6738268 71.6949893,82.5371094 71.2392578,82.5371094 C70.5328741,82.5371094 69.9609397,82.8116835 69.5234375,83.3608398 C69.0859353,83.9099962 68.8671875,84.7473902 68.8671875,85.8730469 C68.8671875,87.0807352 69.1041643,87.9990203 69.578125,88.6279297 C69.983726,89.1702501 70.5328741,89.4414062 71.2255859,89.4414062 C71.5491553,89.4414062 71.8852522,89.3650724 72.2338867,89.2124023 C72.5825213,89.0597323 72.8935533,88.8512383 73.1669922,88.5869141 L73.1669922,87.3154297 L71.2666016,87.3154297 Z M76.3662109,82.7558594 L76.3662109,80.9785156 L77.9453125,80.9785156 L77.9453125,82.7558594 L76.3662109,82.7558594 Z M76.3662109,91 L76.3662109,83.7402344 L77.9453125,83.7402344 L77.9453125,91 L76.3662109,91 Z M79.1894531,87.2675781 C79.1894531,86.5566371 79.3307278,85.9095081 79.6132812,85.3261719 C79.8958347,84.7428356 80.2649717,84.30534 80.7207031,84.0136719 C81.1764346,83.7220037 81.6891248,83.5761719 82.2587891,83.5761719 C83.2158251,83.5761719 83.9677707,83.9510054 84.5146484,84.7006836 C85.0615262,85.4503618 85.3349609,86.3264924 85.3349609,87.3291016 C85.3349609,88.0765011 85.192547,88.7509736 84.9077148,89.3525391 C84.6228827,89.9541046 84.2491885,90.4064112 83.7866211,90.7094727 C83.3240537,91.0125341 82.81706,91.1640625 82.265625,91.1640625 C81.381506,91.1640625 80.6477894,90.8268263 80.0644531,90.1523438 C79.4811169,89.4778612 79.1894531,88.5162823 79.1894531,87.2675781 Z M80.8027344,87.3701172 C80.8027344,88.1038448 80.9462876,88.6586895 81.2333984,89.034668 C81.5205092,89.4106464 81.86686,89.5986328 82.2724609,89.5986328 C82.6689473,89.5986328 83.0084621,89.4095071 83.2910156,89.03125 C83.5735691,88.6529929 83.7148438,88.0947303 83.7148438,87.3564453 C83.7148438,86.6363896 83.5712905,86.0872415 83.2841797,85.7089844 C82.9970689,85.3307273 82.6529968,85.1416016 82.2519531,85.1416016 C81.8554668,85.1416016 81.5148126,85.3307273 81.2299805,85.7089844 C80.9451483,86.0872415 80.8027344,86.6409469 80.8027344,87.3701172 Z M93.4560547,91 L91.8837891,91 L91.8837891,83.7607422 C91.2958955,84.4215528 90.6168658,84.9068995 89.8466797,85.2167969 L89.8466797,83.4736328 C90.2841819,83.2958975 90.7376279,82.9780296 91.2070312,82.5200195 C91.6764346,82.0620094 92.0022777,81.5345082 92.1845703,80.9375 L93.4560547,80.9375 L93.4560547,91 Z M98.8974609,91 L98.8974609,88.9833984 L95.5341797,88.9833984 L95.5341797,87.3017578 L99.0957031,80.9375 L100.421875,80.9375 L100.421875,87.2949219 L101.44043,87.2949219 L101.44043,88.9833984 L100.421875,88.9833984 L100.421875,91 L98.8974609,91 Z M98.8974609,87.2949219 L98.8974609,83.8701172 L97.0107422,87.2949219 L98.8974609,87.2949219 Z M102.53418,91 L102.53418,89.0791016 L104.113281,89.0791016 L104.113281,91 L102.53418,91 Z M105.330078,88.3408203 L106.854492,88.1152344 C106.895508,88.5891951 107.02539,88.9514961 107.244141,89.2021484 C107.462892,89.4528007 107.720376,89.578125 108.016602,89.578125 C108.340171,89.578125 108.613606,89.4300145 108.836914,89.1337891 C109.060222,88.8375636 109.171875,88.4274115 109.171875,87.9033203 C109.171875,87.4156877 109.06478,87.032879 108.850586,86.7548828 C108.636392,86.4768866 108.376629,86.3378906 108.071289,86.3378906 C107.870767,86.3378906 107.631512,86.3857417 107.353516,86.4814453 L107.524414,84.9160156 C107.930015,84.9251303 108.251301,84.8157563 108.488281,84.5878906 C108.720704,84.3600249 108.836914,84.0387391 108.836914,83.6240234 C108.836914,83.2776675 108.752605,83.0065114 108.583984,82.8105469 C108.415364,82.6145824 108.198895,82.5166016 107.93457,82.5166016 C107.670246,82.5166016 107.441244,82.6293934 107.247559,82.8549805 C107.053873,83.0805675 106.938802,83.4143858 106.902344,83.8564453 L105.446289,83.5556641 C105.59668,82.6396439 105.890623,81.9742859 106.328125,81.5595703 C106.765627,81.1448547 107.317054,80.9375 107.982422,80.9375 C108.729821,80.9375 109.323403,81.2040989 109.763184,81.7373047 C110.202964,82.2705105 110.422852,82.8606738 110.422852,83.5078125 C110.422852,83.9453147 110.323731,84.3395165 110.125488,84.6904297 C109.927245,85.0413429 109.629885,85.348957 109.233398,85.6132812 C109.693687,85.7363287 110.068521,86.0074849 110.35791,86.4267578 C110.6473,86.8460307 110.791992,87.370114 110.791992,87.9990234 C110.791992,88.9150436 110.519697,89.6726858 109.975098,90.2719727 C109.430499,90.8712595 108.78223,91.1708984 108.030273,91.1708984 C107.310218,91.1708984 106.700686,90.9179713 106.20166,90.4121094 C105.702634,89.9062475 105.41211,89.2158247 105.330078,88.3408203 Z M114.435547,80.9375 C115.233077,80.9375 115.877927,81.3168907 116.370117,82.0756836 C116.862307,82.8344765 117.108398,84.1617744 117.108398,86.0576172 C117.108398,87.9489027 116.862307,89.273922 116.370117,90.0327148 C115.877927,90.7915077 115.235356,91.1708984 114.442383,91.1708984 C113.644853,91.1708984 113.000002,90.7949256 112.507812,90.0429688 C112.015623,89.2910119 111.769531,87.9557388 111.769531,86.0371094 C111.769531,84.1549385 112.015623,82.8344765 112.507812,82.0756836 C113.000002,81.3168907 113.642574,80.9375 114.435547,80.9375 Z M114.435547,82.5302734 C114.125649,82.5302734 113.878419,82.7353495 113.693848,83.1455078 C113.509276,83.5556661 113.416992,84.5263595 113.416992,86.0576172 C113.416992,87.5888748 113.509276,88.558429 113.693848,88.9663086 C113.878419,89.3741882 114.125649,89.578125 114.435547,89.578125 C114.750002,89.578125 114.998371,89.3730489 115.180664,88.9628906 C115.362957,88.5527323 115.454102,87.5843175 115.454102,86.0576172 C115.454102,84.5263595 115.362957,83.5556661 115.180664,83.1455078 C114.998371,82.7353495 114.750002,82.5302734 114.435547,82.5302734 Z M118.03125,88.3271484 L118.03125,86.40625 L121.12793,86.40625 L121.12793,88.3271484 L118.03125,88.3271484 Z M126.008789,91 L124.436523,91 L124.436523,83.7607422 C123.84863,84.4215528 123.1696,84.9068995 122.399414,85.2167969 L122.399414,83.4736328 C122.836916,83.2958975 123.290362,82.9780296 123.759766,82.5200195 C124.229169,82.0620094 124.555012,81.5345082 124.737305,80.9375 L126.008789,80.9375 L126.008789,91 Z M133.699219,83.4326172 L132.174805,83.6376953 C132.101888,82.8902957 131.803388,82.5166016 131.279297,82.5166016 C130.937498,82.5166016 130.65381,82.7034487 130.428223,83.0771484 C130.202636,83.4508482 130.060222,84.2050725 130.000977,85.3398438 C130.196941,85.0572903 130.415689,84.8453783 130.657227,84.7041016 C130.898764,84.5628248 131.165363,84.4921875 131.457031,84.4921875 C132.099613,84.4921875 132.660154,84.7918264 133.138672,85.3911133 C133.61719,85.9904001 133.856445,86.7867789 133.856445,87.7802734 C133.856445,88.8375704 133.603518,89.6669892 133.097656,90.2685547 C132.591794,90.8701202 131.965173,91.1708984 131.217773,91.1708984 C130.397457,91.1708984 129.717288,90.7801146 129.177246,89.9985352 C128.637204,89.2169557 128.367188,87.9215585 128.367188,86.1123047 C128.367188,84.275707 128.647458,82.9541056 129.208008,82.1474609 C129.768557,81.3408163 130.488602,80.9375 131.368164,80.9375 C131.974287,80.9375 132.485838,81.1437154 132.902832,81.5561523 C133.319826,81.9685893 133.585286,82.5940713 133.699219,83.4326172 Z M130.137695,87.6230469 C130.137695,88.2565136 130.255044,88.740721 130.489746,89.0756836 C130.724448,89.4106462 130.992186,89.578125 131.292969,89.578125 C131.584637,89.578125 131.82731,89.439129 132.020996,89.1611328 C132.214682,88.8831366 132.311523,88.427412 132.311523,87.7939453 C132.311523,87.137692 132.206707,86.6591812 131.99707,86.3583984 C131.787434,86.0576157 131.527671,85.9072266 131.217773,85.9072266 C130.916991,85.9072266 130.661785,86.0507798 130.452148,86.3378906 C130.242512,86.6250014 130.137695,87.0533826 130.137695,87.6230469 Z M135.086914,91 L135.086914,89.0791016 L136.666016,89.0791016 L136.666016,91 L135.086914,91 Z M137.882812,88.3408203 L139.407227,88.1152344 C139.448242,88.5891951 139.578124,88.9514961 139.796875,89.2021484 C140.015626,89.4528007 140.27311,89.578125 140.569336,89.578125 C140.892905,89.578125 141.16634,89.4300145 141.389648,89.1337891 C141.612957,88.8375636 141.724609,88.4274115 141.724609,87.9033203 C141.724609,87.4156877 141.617514,87.032879 141.40332,86.7548828 C141.189127,86.4768866 140.929364,86.3378906 140.624023,86.3378906 C140.423502,86.3378906 140.184246,86.3857417 139.90625,86.4814453 L140.077148,84.9160156 C140.482749,84.9251303 140.804035,84.8157563 141.041016,84.5878906 C141.273439,84.3600249 141.389648,84.0387391 141.389648,83.6240234 C141.389648,83.2776675 141.305339,83.0065114 141.136719,82.8105469 C140.968098,82.6145824 140.751629,82.5166016 140.487305,82.5166016 C140.22298,82.5166016 139.993979,82.6293934 139.800293,82.8549805 C139.606607,83.0805675 139.491537,83.4143858 139.455078,83.8564453 L137.999023,83.5556641 C138.149415,82.6396439 138.443357,81.9742859 138.880859,81.5595703 C139.318362,81.1448547 139.869788,80.9375 140.535156,80.9375 C141.282556,80.9375 141.876137,81.2040989 142.315918,81.7373047 C142.755699,82.2705105 142.975586,82.8606738 142.975586,83.5078125 C142.975586,83.9453147 142.876466,84.3395165 142.678223,84.6904297 C142.479979,85.0413429 142.182619,85.348957 141.786133,85.6132812 C142.246422,85.7363287 142.621255,86.0074849 142.910645,86.4267578 C143.200034,86.8460307 143.344727,87.370114 143.344727,87.9990234 C143.344727,88.9150436 143.072431,89.6726858 142.527832,90.2719727 C141.983233,90.8712595 141.334965,91.1708984 140.583008,91.1708984 C139.862952,91.1708984 139.25342,90.9179713 138.754395,90.4121094 C138.255369,89.9062475 137.964844,89.2158247 137.882812,88.3408203 Z M146.988281,80.9375 C147.785811,80.9375 148.430662,81.3168907 148.922852,82.0756836 C149.415042,82.8344765 149.661133,84.1617744 149.661133,86.0576172 C149.661133,87.9489027 149.415042,89.273922 148.922852,90.0327148 C148.430662,90.7915077 147.78809,91.1708984 146.995117,91.1708984 C146.197587,91.1708984 145.552737,90.7949256 145.060547,90.0429688 C144.568357,89.2910119 144.322266,87.9557388 144.322266,86.0371094 C144.322266,84.1549385 144.568357,82.8344765 145.060547,82.0756836 C145.552737,81.3168907 146.195309,80.9375 146.988281,80.9375 Z M146.988281,82.5302734 C146.678384,82.5302734 146.431153,82.7353495 146.246582,83.1455078 C146.062011,83.5556661 145.969727,84.5263595 145.969727,86.0576172 C145.969727,87.5888748 146.062011,88.558429 146.246582,88.9663086 C146.431153,89.3741882 146.678384,89.578125 146.988281,89.578125 C147.302736,89.578125 147.551106,89.3730489 147.733398,88.9628906 C147.915691,88.5527323 148.006836,87.5843175 148.006836,86.0576172 C148.006836,84.5263595 147.915691,83.5556661 147.733398,83.1455078 C147.551106,82.7353495 147.302736,82.5302734 146.988281,82.5302734 Z M47.7373047,109 L47.7373047,107.913086 C47.5185536,108.305015 47.2314471,108.61149 46.8759766,108.83252 C46.520506,109.053549 46.1490905,109.164062 45.7617188,109.164062 C45.3697897,109.164062 45.0188818,109.061524 44.7089844,108.856445 C44.399087,108.651366 44.1678068,108.359702 44.0151367,107.981445 C43.8624667,107.603188 43.7861328,107.05404 43.7861328,106.333984 L43.7861328,101.740234 L45.3652344,101.740234 L45.3652344,105.076172 C45.3652344,106.028651 45.3891599,106.633625 45.4370117,106.891113 C45.4848635,107.148602 45.5908195,107.347981 45.7548828,107.489258 C45.9189461,107.630535 46.1171863,107.701172 46.3496094,107.701172 C46.6139336,107.701172 46.8577463,107.608888 47.0810547,107.424316 C47.3043631,107.239745 47.4513343,107.002768 47.5219727,106.713379 C47.592611,106.423989 47.6279297,105.787114 47.6279297,104.802734 L47.6279297,101.740234 L49.2001953,101.740234 L49.2001953,109 L47.7373047,109 Z M52.3515625,109 L50.7724609,109 L50.7724609,101.740234 L52.2353516,101.740234 L52.2353516,102.772461 C52.4860039,102.289386 52.7104482,101.969239 52.9086914,101.812012 C53.1069346,101.654784 53.3359362,101.576172 53.5957031,101.576172 C53.955731,101.576172 54.299803,101.696939 54.6279297,101.938477 L54.1357422,103.613281 C53.8759753,103.403645 53.629884,103.298828 53.3974609,103.298828 C53.1787098,103.298828 52.9861662,103.379719 52.8198242,103.541504 C52.6534822,103.703289 52.5338545,103.996092 52.4609375,104.419922 C52.3880205,104.843752 52.3515625,105.623041 52.3515625,106.757812 L52.3515625,109 Z M55.2568359,101.740234 L56.7265625,101.740234 L56.7265625,102.806641 C56.9270843,102.423826 57.1914046,102.123048 57.5195312,101.904297 C57.8476579,101.685546 58.2008445,101.576172 58.5791016,101.576172 C59.2581414,101.576172 59.8426082,101.899736 60.3325195,102.546875 C60.8224308,103.194014 61.0673828,104.112299 61.0673828,105.301758 C61.0673828,106.550462 60.8212915,107.506344 60.3291016,108.169434 C59.8369116,108.832523 59.2513055,109.164062 58.5722656,109.164062 C58.2578109,109.164062 57.9650079,109.087729 57.6938477,108.935059 C57.4226874,108.782389 57.1367203,108.505536 56.8359375,108.104492 L56.8359375,111.761719 L55.2568359,111.761719 L55.2568359,101.740234 Z M56.8154297,105.24707 C56.8154297,106.067387 56.9487291,106.671222 57.215332,107.058594 C57.4819349,107.445965 57.8043601,107.639648 58.1826172,107.639648 C58.542645,107.639648 58.8457019,107.460777 59.0917969,107.103027 C59.3378919,106.745278 59.4609375,106.160811 59.4609375,105.349609 C59.4609375,104.579423 59.3344739,104.010907 59.081543,103.644043 C58.828612,103.277179 58.5198586,103.09375 58.1552734,103.09375 C57.772459,103.09375 57.4534518,103.272622 57.1982422,103.630371 C56.9430326,103.98812 56.8154297,104.527015 56.8154297,105.24707 Z M71.4511719,108.870117 L72.640625,108.870117 C72.2441386,109.84994 71.6266318,110.607582 70.7880859,111.143066 C69.9495401,111.678551 68.9218811,111.946289 67.7050781,111.946289 C66.4654886,111.946289 65.4161827,111.702476 64.5571289,111.214844 C63.6980751,110.727211 63.0292993,110.012863 62.5507812,109.071777 C62.0722632,108.130692 61.8330078,106.999356 61.8330078,105.677734 C61.8330078,104.324212 62.0950495,103.107427 62.6191406,102.027344 C63.1432318,100.94726 63.8302366,100.139488 64.6801758,99.6040039 C65.5301149,99.0685195 66.4951118,98.8007812 67.5751953,98.8007812 C68.5003301,98.8007812 69.3217738,99.0161111 70.0395508,99.4467773 C70.7573278,99.8774436 71.3224263,100.497229 71.7348633,101.306152 C72.1473002,102.115076 72.3535156,103.036779 72.3535156,104.071289 C72.3535156,105.260748 72.0413443,106.340815 71.4169922,107.311523 C70.6923792,108.43718 69.7672582,109 68.6416016,109 C68.3408188,109 68.1106779,108.938477 67.9511719,108.81543 C67.7916659,108.692382 67.682292,108.494142 67.6230469,108.220703 C67.1855447,108.740237 66.6774117,109 66.0986328,109 C65.4970673,109 64.9866557,108.744794 64.5673828,108.234375 C64.1481099,107.723956 63.9384766,107.028976 63.9384766,106.149414 C63.9384766,105.283524 64.1002588,104.474613 64.4238281,103.722656 C64.7473975,102.970699 65.1279275,102.427248 65.5654297,102.092285 C66.0029319,101.757323 66.4746068,101.589844 66.9804688,101.589844 C67.3131527,101.589844 67.6025378,101.667317 67.8486328,101.822266 C68.0947278,101.977214 68.2975252,102.209634 68.4570312,102.519531 L68.59375,101.760742 L70.0703125,101.760742 L69.2294922,106.662109 C69.1748044,106.976564 69.1474609,107.18164 69.1474609,107.277344 C69.1474609,107.382162 69.1691079,107.463053 69.2124023,107.52002 C69.2556968,107.576986 69.3069658,107.605469 69.3662109,107.605469 C69.5393889,107.605469 69.7672512,107.477866 70.0498047,107.222656 C70.4280618,106.885415 70.7379545,106.422855 70.9794922,105.834961 C71.2210299,105.247067 71.3417969,104.638675 71.3417969,104.009766 C71.3417969,103.244137 71.1765967,102.550296 70.8461914,101.928223 C70.5157861,101.306149 70.0782905,100.839032 69.5336914,100.526855 C68.9890923,100.214679 68.329431,100.058594 67.5546875,100.058594 C66.63411,100.058594 65.8308954,100.276202 65.1450195,100.711426 C64.4591437,101.146649 63.9054383,101.813147 63.4838867,102.710938 C63.0623351,103.608728 62.8515625,104.636387 62.8515625,105.793945 C62.8515625,106.782883 63.0498027,107.655595 63.4462891,108.412109 C63.8427754,109.168624 64.3850877,109.73714 65.0732422,110.117676 C65.7613967,110.498212 66.6022086,110.688477 67.5957031,110.688477 C68.4889368,110.688477 69.2568327,110.536948 69.8994141,110.233887 C70.5419954,109.930825 71.0592428,109.47624 71.4511719,108.870117 Z M65.3945312,106.060547 C65.3945312,106.64844 65.492512,107.076822 65.6884766,107.345703 C65.8844411,107.614585 66.1282537,107.749023 66.4199219,107.749023 C66.6751315,107.749023 66.9098297,107.653321 67.1240234,107.461914 C67.4020196,107.215819 67.6424144,106.796552 67.8452148,106.204102 C68.0480153,105.611651 68.1494141,105.014651 68.1494141,104.413086 C68.1494141,103.898109 68.0491546,103.503908 67.8486328,103.230469 C67.648111,102.95703 67.4042983,102.820312 67.1171875,102.820312 C66.6568987,102.820312 66.2832046,103.080076 65.9960938,103.599609 C65.5950501,104.32878 65.3945312,105.149084 65.3945312,106.060547 Z M77.4257812,109 L77.4257812,107.913086 C77.2070302,108.305015 76.9199237,108.61149 76.5644531,108.83252 C76.2089826,109.053549 75.837567,109.164062 75.4501953,109.164062 C75.0582663,109.164062 74.7073583,109.061524 74.3974609,108.856445 C74.0875636,108.651366 73.8562833,108.359702 73.7036133,107.981445 C73.5509432,107.603188 73.4746094,107.05404 73.4746094,106.333984 L73.4746094,101.740234 L75.0537109,101.740234 L75.0537109,105.076172 C75.0537109,106.028651 75.0776365,106.633625 75.1254883,106.891113 C75.1733401,107.148602 75.2792961,107.347981 75.4433594,107.489258 C75.6074227,107.630535 75.8056629,107.701172 76.0380859,107.701172 C76.3024102,107.701172 76.5462228,107.608888 76.7695312,107.424316 C76.9928397,107.239745 77.1398108,107.002768 77.2104492,106.713379 C77.2810876,106.423989 77.3164062,105.787114 77.3164062,104.802734 L77.3164062,101.740234 L78.8886719,101.740234 L78.8886719,109 L77.4257812,109 Z M85.9433594,109 L84.3642578,109 L84.3642578,105.294922 C84.3642578,104.55208 84.3346357,104.057618 84.2753906,103.811523 C84.2161455,103.565428 84.1056323,103.376303 83.9438477,103.244141 C83.782063,103.111979 83.5986338,103.045898 83.3935547,103.045898 C83.1292304,103.045898 82.889975,103.131347 82.6757812,103.302246 C82.4615875,103.473145 82.3111983,103.708983 82.2246094,104.009766 C82.1380204,104.310548 82.0947266,104.877926 82.0947266,105.711914 L82.0947266,109 L80.515625,109 L80.515625,101.740234 L81.9785156,101.740234 L81.9785156,102.806641 C82.2382825,102.396482 82.5310856,102.088868 82.8569336,101.883789 C83.1827816,101.67871 83.5439433,101.576172 83.9404297,101.576172 C84.4007184,101.576172 84.7892237,101.6958 85.105957,101.935059 C85.4226904,102.174318 85.6414382,102.481932 85.762207,102.85791 C85.8829759,103.233889 85.9433594,103.77734 85.9433594,104.488281 L85.9433594,109 Z M87.5429688,100.755859 L87.5429688,98.9785156 L89.1220703,98.9785156 L89.1220703,100.755859 L87.5429688,100.755859 Z M87.5429688,109 L87.5429688,101.740234 L89.1220703,101.740234 L89.1220703,109 L87.5429688,109 Z M90.6601562,109 L90.6601562,98.9785156 L92.2392578,98.9785156 L92.2392578,102.587891 C92.4807955,102.250649 92.7462551,101.997722 93.0356445,101.829102 C93.325034,101.660481 93.636066,101.576172 93.96875,101.576172 C94.6705764,101.576172 95.2641577,101.8929 95.7495117,102.526367 C96.2348657,103.159834 96.4775391,104.094069 96.4775391,105.329102 C96.4775391,106.559576 96.2291692,107.506344 95.7324219,108.169434 C95.2356746,108.832523 94.6523471,109.164062 93.9824219,109.164062 C93.6406233,109.164062 93.3033871,109.059246 92.9707031,108.849609 C92.6380192,108.639973 92.3554699,108.334637 92.1230469,107.933594 L92.1230469,109 L90.6601562,109 Z M92.2255859,105.212891 C92.2255859,105.837243 92.2848301,106.313475 92.4033203,106.641602 C92.5218105,106.969728 92.6904286,107.219237 92.9091797,107.390137 C93.1279308,107.561036 93.3580717,107.646484 93.5996094,107.646484 C93.9459653,107.646484 94.2421863,107.465334 94.4882812,107.103027 C94.7343762,106.740721 94.8574219,106.167647 94.8574219,105.383789 C94.8574219,104.558915 94.7332369,103.963055 94.4848633,103.596191 C94.2364896,103.229328 93.9209004,103.045898 93.5380859,103.045898 C93.1735008,103.045898 92.863608,103.223631 92.6083984,103.579102 C92.3531888,103.934572 92.2255859,104.479163 92.2255859,105.212891 Z M98.9248047,103.955078 L97.4960938,103.640625 C97.6692717,102.906897 97.9552389,102.379396 98.3540039,102.058105 C98.7527689,101.736815 99.3258426,101.576172 100.073242,101.576172 C100.73861,101.576172 101.246743,101.669595 101.597656,101.856445 C101.948569,102.043295 102.199218,102.297362 102.349609,102.618652 C102.500001,102.939943 102.575195,103.52441 102.575195,104.37207 L102.561523,106.614258 C102.561523,107.243167 102.586588,107.711424 102.636719,108.019043 C102.686849,108.326662 102.780273,108.653644 102.916992,109 L101.358398,109 L101.15332,108.207031 C100.884439,108.526043 100.596193,108.765299 100.288574,108.924805 C99.9809555,109.084311 99.6539731,109.164062 99.3076172,109.164062 C98.7288383,109.164062 98.2548847,108.96924 97.8857422,108.57959 C97.5165997,108.189939 97.3320312,107.671553 97.3320312,107.024414 C97.3320312,106.614256 97.4072258,106.256512 97.5576172,105.951172 C97.7080086,105.645832 97.9199205,105.402019 98.1933594,105.219727 C98.4667982,105.037434 98.9042939,104.875652 99.5058594,104.734375 C100.23503,104.565754 100.743163,104.408529 101.030273,104.262695 C101.030273,103.861652 101.001791,103.598471 100.944824,103.473145 C100.887858,103.347818 100.783041,103.24528 100.630371,103.165527 C100.477701,103.085774 100.262371,103.045898 99.984375,103.045898 C99.7018215,103.045898 99.4796558,103.1097 99.3178711,103.237305 C99.1560864,103.364909 99.0250656,103.604165 98.9248047,103.955078 Z M101.030273,105.513672 C100.829752,105.595704 100.51758,105.691406 100.09375,105.800781 C99.6061174,105.928386 99.2871101,106.069661 99.1367188,106.224609 C98.9863274,106.379558 98.9111328,106.580077 98.9111328,106.826172 C98.9111328,107.104168 98.9943026,107.337727 99.1606445,107.526855 C99.3269865,107.715984 99.5354805,107.810547 99.7861328,107.810547 C100.009441,107.810547 100.230468,107.734213 100.449219,107.581543 C100.66797,107.428873 100.819498,107.247722 100.903809,107.038086 C100.988119,106.828449 101.030273,106.447919 101.030273,105.896484 L101.030273,105.513672 Z M104.133789,109 L104.133789,107.079102 L105.712891,107.079102 L105.712891,109 L104.133789,109 Z M107.326172,100.755859 L107.326172,98.9785156 L108.905273,98.9785156 L108.905273,100.755859 L107.326172,100.755859 Z M107.326172,109 L107.326172,101.740234 L108.905273,101.740234 L108.905273,109 L107.326172,109 Z M113.239258,101.740234 L113.239258,103.271484 L112.166016,103.271484 L112.166016,106.197266 C112.166016,106.830732 112.181966,107.197591 112.213867,107.297852 C112.27767,107.480144 112.407551,107.571289 112.603516,107.571289 C112.74935,107.571289 112.958983,107.509766 113.232422,107.386719 L113.369141,108.876953 C113.004555,109.06836 112.592125,109.164062 112.131836,109.164062 C111.730792,109.164062 111.409506,109.06836 111.167969,108.876953 C110.926431,108.685546 110.764649,108.409833 110.682617,108.049805 C110.618815,107.78548 110.586914,107.247725 110.586914,106.436523 L110.586914,103.271484 L109.862305,103.271484 L109.862305,101.740234 L110.586914,101.740234 L110.586914,100.297852 L112.166016,99.1767578 L112.166016,101.740234 L113.239258,101.740234 Z" id="Lun-Ven-9.00-13.00-M" fill="#159B3C"></path>
        </g>
    </g>
</svg>