<?xml version="1.0" encoding="UTF-8"?>
<svg width="72px" height="19px" viewBox="0 0 72 19" version="1.1" xmlns="http://www.w3.org/2000/svg" xmlns:xlink="http://www.w3.org/1999/xlink">
    <!-- Generator: Sketch 46 (44423) - http://www.bohemiancoding.com/sketch -->
    <title>uniba.it</title>
    <desc>Created with Sketch.</desc>
    <defs></defs>
    <g id="Home" stroke="none" stroke-width="1" fill="none" fill-rule="evenodd">
        <g id="Desktop-HD" transform="translate(-48.000000, -10.000000)" fill="#004071">
            <g id="topbar">
                <path d="M49.9943899,18.9848466 C49.2117812,21.5285993 48.3029453,25.0108238 48.3029453,26.2703519 C48.3029453,26.6901945 48.3786816,27.0359473 48.5806452,27.3076102 C48.9845722,27.850936 49.71669,28.2707787 50.2215989,28.3448686 C51.3071529,28.320172 53.0238429,27.1841271 54.8920056,25.1837002 L55.0434783,25.2083969 C54.7910238,26.2703519 54.6143058,27.2088237 54.5385694,27.6039698 C54.7152875,27.9003293 55.1192146,28.2707787 55.2454418,28.2707787 C56.002805,28.2707787 57.2145863,28.0485091 58.3506311,27.6286664 C58.3001403,27.2829136 58.2244039,26.9371608 58.1234222,26.591408 C57.2398317,26.8630709 56.5582048,27.0112507 56.3057504,27.0112507 C56.2552595,27.0112507 56.1795231,26.9371608 56.2047686,26.8630709 C56.6339411,24.7144643 57.9467041,18.9107568 58.2244039,17.6759254 C57.6437588,17.6759254 57.0631136,17.6759254 56.457223,17.700622 C56.1795231,19.0095433 55.5231417,22.0472285 55.2959327,22.8375206 C54.9424965,24.0476553 52.1402525,26.8383743 50.8779804,26.8383743 C50.4488079,26.8383743 50.0953717,26.5420148 50.0953717,25.8999024 C50.0953717,25.3812732 50.2973352,24.3687115 50.4740533,23.5784194 C50.7517532,22.343588 51.5091164,19.6022623 52.0140252,18.095768 C51.9382889,17.7994085 51.5596073,17.4289591 51.3828892,17.4289591 C51.256662,17.4289591 49.7671809,17.8241051 48,18.1204647 C48.0252454,18.4662175 48.0504909,18.7872736 48.1009818,19.157723 L49.9943899,18.9848466 Z M61.3380084,18.9848466 C60.7068724,21.750869 59.7223001,25.8258125 59.1669004,28.0485091 L60.9088359,28.0485091 C61.1612903,27.0606439 61.8934081,24.072352 62.1458626,23.1585767 C62.5497896,21.7261723 65.4530154,19.0342399 67.0182328,19.0342399 C67.5736325,19.0342399 67.8008415,19.4540826 67.8008415,19.9480151 C67.8008415,20.6148241 67.4978962,21.7261723 67.3211781,22.4423745 C66.9929874,23.6772059 66.1851332,26.2703519 65.7559607,27.5298799 C65.8821879,27.9250259 66.3113604,28.2707787 66.4628331,28.2707787 C67.4978962,28.2707787 68.7601683,28.0485091 69.7194951,27.7027563 C69.6942496,27.3570035 69.6437588,27.0112507 69.5680224,26.6654979 C68.7601683,26.8877675 68.0532959,27.0606439 67.7503506,27.0606439 C67.6493689,27.0606439 67.6241234,26.9865541 67.6493689,26.8877675 C68.8106592,23.6772059 69.6690042,20.5654308 69.6690042,19.4787792 C69.6690042,19.2318129 69.6437588,18.9354534 69.5175316,18.6884871 C69.1640954,17.9969815 68.5329593,17.5524422 67.8765778,17.4289591 C66.740533,17.4536557 64.6956522,18.3921276 62.6760168,20.688914 L62.4992987,20.6148241 C62.7769986,19.6022623 63.0042076,18.6143972 63.1809257,17.9475883 C63.0546985,17.700622 62.6760168,17.4289591 62.5245442,17.4289591 C62.3478261,17.4289591 60.9593268,17.8488018 59.2931276,18.1204647 C59.2931276,18.4662175 59.3183731,18.8119702 59.3436185,19.1824197 L61.3380084,18.9848466 Z M74.802244,12.6625099 C73.9186536,12.6625099 73.3884993,13.3540155 73.3884993,13.9220379 C73.3884993,14.5641503 73.943899,15.1568693 74.6760168,15.1568693 C75.3828892,15.1568693 76.0140252,14.514757 76.0140252,13.8726447 C76.0140252,13.3540155 75.6353436,12.6625099 74.802244,12.6625099 L74.802244,12.6625099 Z M73.1360449,18.9848466 C72.4796634,21.750869 71.6718093,25.0602171 71.1164095,27.5051832 C71.2678822,27.850936 71.8485273,28.2707787 72,28.2707787 C72.9593268,28.2707787 74.1206171,28.0485091 75.1556802,27.7274529 C75.1051893,27.3570035 75.0546985,27.0359473 74.9537167,26.6901945 C74.1206171,26.9124642 73.3884993,27.0853406 73.0603086,27.0853406 C72.9593268,27.0853406 72.9340813,27.0112507 72.9593268,26.9124642 C73.2622721,25.6776328 74.5497896,20.4666443 75.1304348,18.0463748 C75.0042076,17.8241051 74.6002805,17.4289591 74.4488079,17.4289591 C74.2468443,17.4289591 72.9088359,17.7747119 70.9396914,18.0463748 C70.9396914,18.3921276 70.9649369,18.7378804 70.9901823,19.1083298 L73.1360449,18.9848466 Z M79.1781206,20.8617904 C79.7840112,18.7131837 81.0967742,13.650375 81.7279102,11.3041954 C81.601683,11.0819257 81.2734923,10.7608696 81.0967742,10.7608696 C80.9200561,10.7608696 79.657784,11.0819257 77.3856942,11.4029819 C77.4361851,11.7487347 77.4614306,12.0697908 77.5119215,12.4155436 L79.6830295,12.2920605 C78.9004208,15.4038356 76.4516129,25.5047564 75.769986,28.0238124 C76.1991585,28.1472956 76.6535764,28.2707787 77.0827489,28.3695652 L77.713885,27.0606439 C78.4964937,27.850936 79.4558205,28.2954753 80.3394109,28.2954753 C82.5357644,28.2954753 84.0252454,26.6408013 84.8078541,25.1837002 C85.8429173,23.3561498 86.2720898,21.08406 86.2720898,19.7998354 C86.2720898,19.4293859 86.1963534,19.0095433 86.0701262,18.7378804 C85.6661992,18.0216782 84.9845722,17.503049 84.3786816,17.4042625 C82.7377279,17.4042625 81.1472651,18.5897006 79.3295933,20.9111836 L79.1781206,20.8617904 Z M80.3141655,27.0853406 C79.5063114,27.0853406 78.4964937,26.4185316 78.1178121,25.6776328 C78.2440393,25.1096103 78.5469846,23.8994756 78.6732118,23.5290262 C79.1781206,22.0472285 82.0056101,18.9354534 83.545582,18.9354534 C84.1009818,18.9354534 84.4039271,19.4787792 84.4039271,20.1208915 C84.4039271,21.4298128 84.0252454,23.4549363 83.2426367,24.8873407 C82.687237,25.9245991 81.7784011,27.0853406 80.3141655,27.0853406 L80.3141655,27.0853406 Z M93.4754558,25.1590036 C93.197756,26.2209586 92.9200561,27.2335203 92.8443198,27.653363 C92.970547,27.9497225 93.4249649,28.2707787 93.5007013,28.2707787 C94.28331,28.2707787 95.545582,28.0238124 96.6058906,27.6286664 C96.5553997,27.2829136 96.4796634,26.9371608 96.3786816,26.591408 C95.545582,26.8630709 94.8639551,27.0359473 94.6619916,27.0359473 C94.5862553,27.0359473 94.5357644,26.9618574 94.5357644,26.8877675 C95.0911641,24.3193183 96.2019635,19.9727118 96.8835905,17.7500152 C96.4291725,17.6018355 95.9495091,17.4536557 95.4950912,17.3301726 L94.9396914,18.6390938 L94.7882188,18.6390938 C94.1065919,17.8734984 93.2482468,17.4289591 92.2889201,17.4289591 C89.8906031,17.4289591 88.1234222,20.3431612 87.3660589,22.3682847 C86.8611501,23.6772059 86.5582048,25.1837002 86.5582048,26.0727788 C86.5582048,26.4679249 86.6339411,26.788981 86.7854137,27.0606439 C87.1640954,27.7521495 87.997195,28.2460821 88.5525947,28.3448686 C89.3856942,28.3448686 91.0014025,27.6286664 93.3239832,25.1096103 L93.4754558,25.1590036 Z M92.3141655,18.762577 C93.1725105,18.762577 93.9551192,19.1824197 94.5105189,19.9727118 C94.3338008,20.7136106 93.8793829,22.4917678 93.7279102,22.9363071 C93.2482468,24.1958351 90.4207574,26.9124642 89.2342216,26.9124642 C88.8050491,26.9124642 88.4263675,26.5420148 88.4263675,25.8258125 C88.4263675,24.6403744 88.8050491,23.0844869 89.3856942,21.750869 C89.9663394,20.3678578 91.026648,18.762577 92.3141655,18.762577 L92.3141655,18.762577 Z M99.6942496,24.3687115 C98.4824684,24.3687115 97.5736325,25.3565766 97.5736325,26.393835 C97.5736325,27.5298799 98.457223,28.2954753 99.5680224,28.2954753 C100.805049,28.2954753 101.73913,27.45579 101.73913,26.2209586 C101.73913,25.2824867 101.13324,24.3687115 99.6942496,24.3687115 L99.6942496,24.3687115 Z M108.513324,11.4276785 C107.200561,11.4276785 106.241234,12.3661504 106.241234,13.4774986 C106.241234,14.4653637 107.023843,15.4779255 108.361851,15.4779255 C109.523142,15.4779255 110.58345,14.6629368 110.58345,13.255229 C110.58345,12.4155436 110.053296,11.4276785 108.513324,11.4276785 L108.513324,11.4276785 Z M105.357644,19.6516556 C104.978962,21.5285993 104.297335,24.7391609 103.767181,27.1594305 C103.943899,27.5792731 104.751753,28.2707787 104.953717,28.2707787 C107.124825,28.2707787 108.513324,28.0485091 109.649369,27.7521495 C109.598878,27.1100372 109.523142,26.4432282 109.472651,25.8011159 C108.765778,25.9739923 108.109397,26.0480822 107.856942,26.0480822 C107.755961,26.0480822 107.730715,25.9739923 107.781206,25.8752058 C107.98317,24.9614306 109.093969,20.022105 109.548387,17.9228916 C109.321178,17.5524422 108.563815,16.9350265 108.361851,16.9350265 C107.907433,16.9350265 105.357644,17.3795658 103.43899,17.6018355 C103.413745,18.2686444 103.413745,18.9354534 103.413745,19.626959 L105.357644,19.6516556 Z M114.934081,24.9614306 C114.934081,24.3934081 115.338008,22.5164644 115.539972,21.5039027 C115.691445,20.7136106 115.893408,19.8986219 115.969144,19.4046893 C117.054698,19.4293859 118.518934,19.4293859 119.503506,19.4293859 C119.70547,18.7378804 119.882188,17.8734984 120.008415,17.1572962 C118.897616,17.1819928 117.635344,17.1819928 116.448808,17.1819928 C116.625526,16.4904872 117.004208,14.6876334 117.105189,14.1443076 C117.130435,14.0702177 117.079944,14.0455211 117.029453,14.0455211 C116.423562,14.0455211 114.732118,14.2924873 113.318373,14.8605098 C113.141655,15.4532289 112.964937,16.2435209 112.762973,16.9844198 C112.737728,17.1325995 112.636746,17.1819928 112.535764,17.1819928 C111.955119,17.2313861 111.197756,17.2807793 110.56662,17.3301726 C110.415147,17.9969815 110.28892,18.7378804 110.137447,19.4046893 L112.207574,19.4046893 C112.106592,19.824532 111.652174,22.0472285 111.500701,22.6893408 C111.399719,23.2326666 110.970547,25.3565766 110.970547,25.9245991 C110.970547,26.0974755 111.021038,26.3691384 111.12202,26.591408 C111.551192,27.5545765 112.737728,28.2707787 113.368864,28.2707787 C114.984572,28.2707787 116.827489,27.9744192 118.645161,27.4310934 C118.670407,26.8136777 118.695652,26.0727788 118.670407,25.4059699 C117.736325,25.5541496 116.87798,25.6776328 115.842917,25.6776328 C115.262272,25.6776328 114.934081,25.4059699 114.934081,24.9614306 L114.934081,24.9614306 Z" id="uniba.it"></path>
            </g>
        </g>
    </g>
</svg>